M48
;Layer_Color=9474304
;FILE_FORMAT=4:4
METRIC,LZ
;TYPE=PLATED
T01F00S00C0.7112
T02F00S00C1.0000
T03F00S00C1.0200
T04F00S00C3.1000
%
T01
X-000762Y0022352
Y0027432
Y0032004
X0004572Y003556
X0002794Y0017272
X0004064Y0015748
T02
X00301906Y00062616
X00328423Y00053777
X00360243Y00085597
X00351404Y00112114
X0030825Y0022785
X0026325
Y0029285
X0030825
X000577Y0028575
X000127
Y0022075
X000577
X-00032634Y00112114
X-00041473Y00085597
X-00009653Y00053777
X00016864Y00062616
X-00026284Y00402236
X-00035123Y00428753
X-00003303Y00460573
X00023214Y00451734
X00300636Y00451734
X00327153Y00460573
X00358973Y00428753
X00350134Y00402236
T03
X0023495Y001778
Y002032
Y002286
Y00254
Y002794
Y003048
Y003302
X0008255
Y003048
Y002794
Y00254
Y002286
Y002032
Y001778
T04
X00381Y0013716
X-0006604
Y00381
X0038608
M30
