G04*
G04 #@! TF.GenerationSoftware,Altium Limited,Altium Designer,23.9.2 (47)*
G04*
G04 Layer_Color=32896*
%FSLAX44Y44*%
%MOMM*%
G71*
G04*
G04 #@! TF.SameCoordinates,59006CB8-04EA-46C6-BC13-78CBB85C9A35*
G04*
G04*
G04 #@! TF.FilePolarity,Positive*
G04*
G01*
G75*
%ADD11C,0.2540*%
%ADD12C,0.2000*%
%ADD44C,0.1524*%
D11*
X44196Y244089D02*
Y228854D01*
X36579D01*
X34039Y231393D01*
Y233932D01*
X36579Y236472D01*
X44196D01*
X36579D01*
X34039Y239011D01*
Y241550D01*
X36579Y244089D01*
X44196D01*
X28961D02*
X18804D01*
X23883D01*
Y228854D01*
X3569D02*
X13726D01*
X3569Y239011D01*
Y241550D01*
X6108Y244089D01*
X11187D01*
X13726Y241550D01*
X304041Y376677D02*
X309120D01*
X306581D01*
Y363981D01*
X309120Y361442D01*
X311659D01*
X314198Y363981D01*
X298963Y361442D02*
Y376677D01*
X291345D01*
X288806Y374138D01*
Y369059D01*
X291345Y366520D01*
X298963D01*
X283728Y361442D02*
X278650D01*
X281189D01*
Y376677D01*
X283728Y374138D01*
X49524Y490218D02*
Y474982D01*
X41907D01*
X39367Y477522D01*
Y480061D01*
X41907Y482600D01*
X49524D01*
X41907D01*
X39367Y485139D01*
Y487678D01*
X41907Y490218D01*
X49524D01*
X34289D02*
X24132D01*
X29211D01*
Y474982D01*
X19054D02*
X13976D01*
X16515D01*
Y490218D01*
X19054Y487678D01*
D12*
X213013Y13374D02*
G03*
X104487Y13374I-54263J-51774D01*
G01*
X58250Y38600D02*
G03*
X104487Y13374I30000J0D01*
G01*
X213013D02*
G03*
X259250Y38600I16237J25226D01*
G01*
X104487Y500976D02*
G03*
X58250Y475750I-16237J-25226D01*
G01*
X259250D02*
G03*
X213013Y500976I-30000J0D01*
G01*
X104487Y500976D02*
G03*
X213013Y500976I54263J51774D01*
G01*
X53250Y54600D02*
Y72100D01*
X259250Y148600D02*
X264250D01*
X196183Y201520D02*
X259250Y148600D01*
X58250D02*
X121317Y201520D01*
X53250Y148600D02*
X58250D01*
X53250Y54600D02*
X58250D01*
Y38600D02*
Y54600D01*
X259250Y38600D02*
Y54600D01*
X264250D01*
X121250Y206600D02*
X196250D01*
Y201600D02*
Y206600D01*
X121250Y201600D02*
Y206600D01*
X53250Y131100D02*
Y148600D01*
X264250Y54600D02*
Y72100D01*
Y131100D02*
Y148600D01*
X53250Y365750D02*
Y383250D01*
Y442250D02*
Y459750D01*
X264250Y365750D02*
Y383250D01*
X196250Y307750D02*
Y312750D01*
X121250Y307750D02*
Y312750D01*
Y307750D02*
X196250D01*
X53250Y459750D02*
X58250D01*
Y475750D01*
X259250Y459750D02*
Y475750D01*
Y459750D02*
X264250D01*
X259250Y365750D02*
X264250D01*
X196183Y312830D02*
X259250Y365750D01*
X58250D02*
X121317Y312830D01*
X53250Y365750D02*
X58250D01*
X264250Y442250D02*
Y459750D01*
D44*
X299212Y350520D02*
G03*
X296672Y353060I-2540J0D01*
G01*
X279400D02*
G03*
X276860Y350520I0J-2540D01*
G01*
Y335280D02*
G03*
X279400Y332740I2540J0D01*
G01*
X296672D02*
G03*
X299212Y335280I0J2540D01*
G01*
X279400Y332740D02*
X296672D01*
X276860Y335280D02*
Y350520D01*
X299212Y335280D02*
Y350520D01*
X279400Y353060D02*
X296672D01*
M02*
