G04*
G04 #@! TF.GenerationSoftware,Altium Limited,Altium Designer,23.9.2 (47)*
G04*
G04 Layer_Color=8388736*
%FSLAX44Y44*%
%MOMM*%
G71*
G04*
G04 #@! TF.SameCoordinates,59006CB8-04EA-46C6-BC13-78CBB85C9A35*
G04*
G04*
G04 #@! TF.FilePolarity,Negative*
G04*
G01*
G75*
%ADD22P,1.7016X4X345.0*%
%ADD23P,1.7016X4X105.0*%
%ADD24R,1.2032X1.2032*%
%ADD25P,1.7016X4X375.0*%
%ADD26P,1.7016X4X255.0*%
%ADD27R,1.2032X1.2032*%
%ADD28C,5.7032*%
%ADD29C,1.7032*%
%ADD30R,1.7332X1.7332*%
%ADD31C,1.7332*%
%ADD32C,1.4732*%
D22*
X311704Y361290D02*
D03*
X300446Y354790D02*
D03*
X310596Y337210D02*
D03*
X321854Y343710D02*
D03*
X-4354Y170640D02*
D03*
X6904Y177140D02*
D03*
X17054Y159560D02*
D03*
X5796Y153060D02*
D03*
D23*
X-4354Y337360D02*
D03*
X6904Y330860D02*
D03*
X17054Y348440D02*
D03*
X5796Y354940D02*
D03*
X318054Y159410D02*
D03*
X306796Y165910D02*
D03*
X316946Y183490D02*
D03*
X328204Y176990D02*
D03*
D24*
X148600Y438300D02*
D03*
Y425300D02*
D03*
X168900D02*
D03*
Y438300D02*
D03*
X148600Y69700D02*
D03*
Y82700D02*
D03*
X168900D02*
D03*
Y69700D02*
D03*
D25*
X242920Y421458D02*
D03*
X236420Y410200D02*
D03*
X254000Y400050D02*
D03*
X260500Y411308D02*
D03*
X64160Y94696D02*
D03*
X70660Y105954D02*
D03*
X88240Y95804D02*
D03*
X81740Y84546D02*
D03*
D26*
X236420Y85100D02*
D03*
X229920Y96358D02*
D03*
X247500Y106508D02*
D03*
X254000Y95250D02*
D03*
X69700Y417658D02*
D03*
X76200Y406400D02*
D03*
X58620Y396250D02*
D03*
X52120Y407508D02*
D03*
D27*
X343200Y241300D02*
D03*
X330200D02*
D03*
Y261600D02*
D03*
X343200D02*
D03*
X-25700Y267950D02*
D03*
X-12700D02*
D03*
Y247650D02*
D03*
X-25700D02*
D03*
D28*
X386080Y381000D02*
D03*
X381000Y137160D02*
D03*
X-66040D02*
D03*
Y381000D02*
D03*
D29*
X263250Y227850D02*
D03*
X308250D02*
D03*
X263250Y292850D02*
D03*
X308250D02*
D03*
X57700Y285750D02*
D03*
X12700D02*
D03*
X57700Y220750D02*
D03*
X12700D02*
D03*
X23214Y451734D02*
D03*
X-26284Y402236D02*
D03*
X-3303Y460573D02*
D03*
X-35123Y428753D02*
D03*
X-32634Y112114D02*
D03*
X16864Y62616D02*
D03*
X-41473Y85597D02*
D03*
X-9653Y53777D02*
D03*
X301906Y62616D02*
D03*
X351404Y112114D02*
D03*
X328423Y53777D02*
D03*
X360243Y85597D02*
D03*
X350134Y402236D02*
D03*
X300636Y451734D02*
D03*
X358973Y428753D02*
D03*
X327153Y460573D02*
D03*
D30*
X82550Y330200D02*
D03*
D31*
Y304800D02*
D03*
Y279400D02*
D03*
Y254000D02*
D03*
Y228600D02*
D03*
Y203200D02*
D03*
Y177800D02*
D03*
X234950D02*
D03*
Y203200D02*
D03*
Y228600D02*
D03*
Y254000D02*
D03*
Y279400D02*
D03*
Y304800D02*
D03*
Y330200D02*
D03*
D32*
X27940Y172720D02*
D03*
X-76200Y223520D02*
D03*
Y274320D02*
D03*
Y320040D02*
D03*
X40640Y157480D02*
D03*
X45720Y355600D02*
D03*
M02*
