G04*
G04 #@! TF.GenerationSoftware,Altium Limited,Altium Designer,23.9.2 (47)*
G04*
G04 Layer_Physical_Order=2*
G04 Layer_Color=16711680*
%FSLAX44Y44*%
%MOMM*%
G71*
G04*
G04 #@! TF.SameCoordinates,59006CB8-04EA-46C6-BC13-78CBB85C9A35*
G04*
G04*
G04 #@! TF.FilePolarity,Positive*
G04*
G01*
G75*
%ADD11C,0.2540*%
%ADD33C,5.5000*%
%ADD34C,1.5000*%
%ADD35R,1.5300X1.5300*%
%ADD36C,1.5300*%
%ADD37C,1.2700*%
%ADD38R,4.0000X4.0000*%
%ADD39R,5.2000X5.2000*%
%ADD40R,0.6350X1.2700*%
G36*
X419100Y406400D02*
Y101600D01*
X317500Y0D01*
X0D01*
X-101600Y101600D01*
Y406400D01*
X0Y508000D01*
X317500D01*
X419100Y406400D01*
D02*
G37*
%LPC*%
G36*
X328475Y470613D02*
X325831D01*
X323278Y469929D01*
X320988Y468607D01*
X320952Y468570D01*
X327153Y462369D01*
X333354Y468570D01*
X333318Y468607D01*
X331028Y469929D01*
X328475Y470613D01*
D02*
G37*
G36*
X335150Y466774D02*
X328949Y460573D01*
X335150Y454371D01*
X335187Y454408D01*
X336509Y456698D01*
X337193Y459251D01*
Y461894D01*
X336509Y464448D01*
X335187Y466737D01*
X335150Y466774D01*
D02*
G37*
G36*
X319156Y466774D02*
X319119Y466737D01*
X317797Y464448D01*
X317113Y461894D01*
Y459251D01*
X317797Y456698D01*
X319119Y454408D01*
X319156Y454371D01*
X325357Y460573D01*
X319156Y466774D01*
D02*
G37*
G36*
X327153Y458777D02*
X320952Y452575D01*
X320988Y452539D01*
X323278Y451217D01*
X325831Y450533D01*
X328475D01*
X331028Y451217D01*
X333318Y452539D01*
X333354Y452575D01*
X327153Y458777D01*
D02*
G37*
G36*
X-33801Y438793D02*
X-36444D01*
X-38998Y438109D01*
X-41287Y436787D01*
X-41324Y436750D01*
X-35123Y430549D01*
X-28921Y436750D01*
X-28958Y436787D01*
X-31247Y438109D01*
X-33801Y438793D01*
D02*
G37*
G36*
X-27125Y434954D02*
X-33327Y428753D01*
X-27125Y422552D01*
X-27089Y422588D01*
X-25767Y424878D01*
X-25083Y427431D01*
Y430075D01*
X-25767Y432628D01*
X-27089Y434918D01*
X-27125Y434954D01*
D02*
G37*
G36*
X-43120Y434954D02*
X-43157Y434918D01*
X-44479Y432628D01*
X-45163Y430075D01*
Y427431D01*
X-44479Y424878D01*
X-43157Y422588D01*
X-43120Y422552D01*
X-36919Y428753D01*
X-43120Y434954D01*
D02*
G37*
G36*
X-1981Y470613D02*
X-4625D01*
X-7178Y469929D01*
X-9468Y468607D01*
X-11337Y466737D01*
X-12659Y464448D01*
X-13343Y461894D01*
Y459251D01*
X-12659Y456697D01*
X-11337Y454408D01*
X-9468Y452539D01*
X-7188Y451222D01*
Y387915D01*
X-6892Y386428D01*
X-6050Y385168D01*
X7708Y371411D01*
X8968Y370569D01*
X10454Y370273D01*
X39922D01*
X41835Y368359D01*
Y363623D01*
X40261Y362714D01*
X38606Y361059D01*
X37436Y359031D01*
X36830Y356770D01*
Y354430D01*
X37436Y352169D01*
X38606Y350141D01*
X40261Y348486D01*
X42289Y347316D01*
X44550Y346710D01*
X46890D01*
X49151Y347316D01*
X51179Y348486D01*
X52834Y350141D01*
X54004Y352169D01*
X54610Y354430D01*
Y356770D01*
X54004Y359031D01*
X52834Y361059D01*
X51179Y362714D01*
X49605Y363623D01*
Y369968D01*
X49309Y371455D01*
X48467Y372715D01*
X44278Y376904D01*
X43018Y377746D01*
X41531Y378042D01*
X12063D01*
X7069Y383037D01*
X7555Y384210D01*
X57790D01*
Y432675D01*
X136210D01*
Y395704D01*
X125247Y384741D01*
X124405Y383481D01*
X124109Y381994D01*
Y374315D01*
X95907Y346112D01*
X53183D01*
X51696Y345816D01*
X50436Y344974D01*
X-1357Y293182D01*
X-2199Y291921D01*
X-2495Y290435D01*
Y216065D01*
X-2199Y214579D01*
X-1357Y213318D01*
X11323Y200638D01*
X10838Y199465D01*
X-41835D01*
Y289560D01*
X-42131Y291047D01*
X-42973Y292307D01*
X-67780Y317114D01*
X-67337Y318770D01*
X-74930D01*
Y311177D01*
X-73274Y311620D01*
X-49605Y287951D01*
Y197068D01*
X-49309Y195581D01*
X-48467Y194321D01*
X-46979Y192833D01*
X-45719Y191991D01*
X-44232Y191695D01*
X11091D01*
X22536Y180250D01*
X22481Y179834D01*
X20826Y178179D01*
X19656Y176151D01*
X19077Y173990D01*
X27940D01*
Y172720D01*
X29210D01*
Y163857D01*
X31371Y164436D01*
X33399Y165606D01*
X35054Y167261D01*
X36224Y169289D01*
X36830Y171550D01*
Y173335D01*
X38100Y173862D01*
X45632Y166330D01*
X44852Y165314D01*
X44071Y165764D01*
X41810Y166370D01*
X39470D01*
X37209Y165764D01*
X35181Y164594D01*
X33526Y162939D01*
X32617Y161365D01*
X27742D01*
X26255Y161069D01*
X24995Y160227D01*
X-21033Y114199D01*
X-21378Y113683D01*
X-22730Y113945D01*
X-23278Y115989D01*
X-24600Y118278D01*
X-26469Y120148D01*
X-28759Y121469D01*
X-31312Y122154D01*
X-33956D01*
X-36509Y121469D01*
X-38799Y120148D01*
X-40668Y118278D01*
X-41990Y115989D01*
X-42674Y113435D01*
Y110792D01*
X-41990Y108238D01*
X-40668Y105949D01*
X-38799Y104080D01*
X-36509Y102758D01*
X-33956Y102074D01*
X-32286D01*
X-31760Y100804D01*
X-37608Y94956D01*
X-40151Y95637D01*
X-42794D01*
X-45348Y94953D01*
X-47637Y93631D01*
X-49507Y91762D01*
X-50828Y89472D01*
X-51513Y86919D01*
Y84275D01*
X-50828Y81722D01*
X-49507Y79432D01*
X-47637Y77563D01*
X-45348Y76241D01*
X-42794Y75557D01*
X-40151D01*
X-37597Y76241D01*
X-35308Y77563D01*
X-33439Y79432D01*
X-32117Y81722D01*
X-31433Y84275D01*
Y86919D01*
X-32114Y89462D01*
X-15539Y106037D01*
X-14697Y107297D01*
X-14402Y108784D01*
Y109843D01*
X-463Y123781D01*
X710Y123295D01*
Y73060D01*
X12333D01*
X12673Y71790D01*
X10699Y70650D01*
X8830Y68781D01*
X7508Y66491D01*
X6824Y63938D01*
Y61294D01*
X7508Y58741D01*
X8830Y56451D01*
X10699Y54582D01*
X12988Y53260D01*
X15542Y52576D01*
X18185D01*
X20739Y53260D01*
X23028Y54582D01*
X24898Y56451D01*
X26219Y58741D01*
X26904Y61294D01*
Y63938D01*
X26219Y66491D01*
X24898Y68781D01*
X23028Y70650D01*
X21054Y71790D01*
X21394Y73060D01*
X57790D01*
Y97715D01*
X113362D01*
X114848Y98011D01*
X116109Y98853D01*
X135037Y117781D01*
X136210Y117295D01*
Y79060D01*
X181290D01*
Y97715D01*
X216906D01*
X254753Y59869D01*
X256013Y59027D01*
X257499Y58731D01*
X292556D01*
X293872Y56451D01*
X295742Y54582D01*
X298031Y53260D01*
X300585Y52576D01*
X303228D01*
X305782Y53260D01*
X308071Y54582D01*
X309940Y56451D01*
X311262Y58741D01*
X311946Y61294D01*
Y63938D01*
X311262Y66491D01*
X309940Y68781D01*
X308071Y70650D01*
X306097Y71790D01*
X306437Y73060D01*
X316790D01*
Y123295D01*
X317963Y123781D01*
X319458Y122286D01*
Y58857D01*
X319536Y58465D01*
X319067Y57653D01*
X318383Y55099D01*
Y52456D01*
X319067Y49902D01*
X320389Y47613D01*
X322258Y45743D01*
X324548Y44422D01*
X327101Y43737D01*
X329745D01*
X332298Y44422D01*
X334588Y45743D01*
X336457Y47613D01*
X337779Y49902D01*
X338463Y52456D01*
Y55099D01*
X337779Y57653D01*
X336457Y59942D01*
X334588Y61811D01*
X332298Y63133D01*
X329745Y63817D01*
X327228D01*
Y123895D01*
X326932Y125382D01*
X326090Y126642D01*
X288725Y164007D01*
X287465Y164849D01*
X285978Y165145D01*
X268692D01*
X268207Y166318D01*
X327876Y225988D01*
X328718Y227248D01*
X329014Y228735D01*
Y393301D01*
X338824Y403110D01*
X340094Y402584D01*
Y400915D01*
X340778Y398361D01*
X342100Y396072D01*
X343969Y394202D01*
X346259Y392881D01*
X348812Y392196D01*
X351456D01*
X354009Y392881D01*
X356299Y394202D01*
X358168Y396072D01*
X359490Y398361D01*
X360174Y400915D01*
Y403558D01*
X359490Y406112D01*
X358168Y408401D01*
X356299Y410270D01*
X354009Y411592D01*
X351456Y412276D01*
X349786D01*
X349260Y413546D01*
X355108Y419394D01*
X357651Y418713D01*
X360294D01*
X362848Y419397D01*
X365137Y420719D01*
X367007Y422588D01*
X368329Y424878D01*
X369013Y427431D01*
Y430075D01*
X368329Y432628D01*
X367007Y434918D01*
X365137Y436787D01*
X362848Y438109D01*
X360294Y438793D01*
X357651D01*
X355097Y438109D01*
X352808Y436787D01*
X350939Y434918D01*
X349617Y432628D01*
X348933Y430075D01*
Y427431D01*
X349614Y424888D01*
X322383Y397657D01*
X321541Y396396D01*
X321245Y394910D01*
Y230344D01*
X319463Y228562D01*
X318290Y229048D01*
Y229172D01*
X317606Y231725D01*
X316284Y234015D01*
X314415Y235884D01*
X312135Y237200D01*
Y283500D01*
X314415Y284816D01*
X316284Y286685D01*
X317606Y288975D01*
X318290Y291528D01*
Y294172D01*
X317606Y296725D01*
X316284Y299015D01*
X314415Y300884D01*
X312125Y302206D01*
X309572Y302890D01*
X306928D01*
X304385Y302209D01*
X287587Y319007D01*
X286327Y319849D01*
X284840Y320145D01*
X240454D01*
X240113Y321415D01*
X241207Y322046D01*
X243104Y323943D01*
X244446Y326267D01*
X244459Y326315D01*
X274447D01*
X275934Y326611D01*
X277194Y327453D01*
X283751Y334010D01*
X297815D01*
Y351790D01*
X295985D01*
Y384210D01*
X316790D01*
Y441290D01*
X305167D01*
X304827Y442560D01*
X306801Y443700D01*
X308670Y445569D01*
X309992Y447859D01*
X310676Y450412D01*
Y453056D01*
X309992Y455609D01*
X308670Y457899D01*
X306801Y459768D01*
X304512Y461090D01*
X301958Y461774D01*
X299315D01*
X296761Y461090D01*
X294472Y459768D01*
X292602Y457899D01*
X291281Y455609D01*
X290596Y453056D01*
Y450412D01*
X291281Y447859D01*
X292602Y445569D01*
X294472Y443700D01*
X296446Y442560D01*
X296106Y441290D01*
X259710D01*
Y416635D01*
X205747D01*
X183075Y439307D01*
X181815Y440149D01*
X180328Y440445D01*
X57790D01*
Y441290D01*
X27744D01*
X27404Y442560D01*
X29378Y443700D01*
X31248Y445569D01*
X32569Y447859D01*
X33254Y450412D01*
Y453056D01*
X32569Y455609D01*
X31248Y457899D01*
X29378Y459768D01*
X27089Y461090D01*
X24535Y461774D01*
X21892D01*
X19338Y461090D01*
X17049Y459768D01*
X15180Y457899D01*
X13858Y455609D01*
X13174Y453056D01*
Y450412D01*
X13858Y447859D01*
X15180Y445569D01*
X17049Y443700D01*
X19023Y442560D01*
X18683Y441290D01*
X710D01*
X582Y442507D01*
Y451222D01*
X2862Y452539D01*
X4731Y454408D01*
X6053Y456697D01*
X6737Y459251D01*
Y461894D01*
X6053Y464448D01*
X4731Y466737D01*
X2862Y468607D01*
X572Y469929D01*
X-1981Y470613D01*
D02*
G37*
G36*
X-35123Y426957D02*
X-41324Y420756D01*
X-41287Y420719D01*
X-38998Y419397D01*
X-36444Y418713D01*
X-33801D01*
X-31247Y419397D01*
X-28958Y420719D01*
X-28921Y420756D01*
X-35123Y426957D01*
D02*
G37*
G36*
X-24962Y412276D02*
X-27606D01*
X-30159Y411592D01*
X-32449Y410270D01*
X-34318Y408401D01*
X-35640Y406112D01*
X-36324Y403558D01*
Y400915D01*
X-35640Y398361D01*
X-34318Y396072D01*
X-32449Y394202D01*
X-30159Y392881D01*
X-27606Y392196D01*
X-24962D01*
X-22409Y392881D01*
X-20119Y394202D01*
X-18250Y396072D01*
X-16928Y398361D01*
X-16244Y400915D01*
Y403558D01*
X-16928Y406112D01*
X-18250Y408401D01*
X-20119Y410270D01*
X-22409Y411592D01*
X-24962Y412276D01*
D02*
G37*
G36*
X388444Y411040D02*
X383716D01*
X379046Y410300D01*
X374549Y408839D01*
X370336Y406693D01*
X366510Y403913D01*
X363167Y400570D01*
X360387Y396744D01*
X358241Y392531D01*
X356780Y388034D01*
X356040Y383364D01*
Y378636D01*
X356780Y373966D01*
X358241Y369469D01*
X360387Y365256D01*
X363167Y361430D01*
X366510Y358087D01*
X370336Y355308D01*
X374549Y353161D01*
X379046Y351700D01*
X383716Y350960D01*
X388444D01*
X393114Y351700D01*
X397611Y353161D01*
X401824Y355308D01*
X405650Y358087D01*
X408993Y361430D01*
X411772Y365256D01*
X413919Y369469D01*
X415380Y373966D01*
X416120Y378636D01*
Y383364D01*
X415380Y388034D01*
X413919Y392531D01*
X411772Y396744D01*
X408993Y400570D01*
X405650Y403913D01*
X401824Y406693D01*
X397611Y408839D01*
X393114Y410300D01*
X388444Y411040D01*
D02*
G37*
G36*
X-63676D02*
X-68404D01*
X-73074Y410300D01*
X-77571Y408839D01*
X-81784Y406693D01*
X-85610Y403913D01*
X-88953Y400570D01*
X-91733Y396744D01*
X-93879Y392531D01*
X-95340Y388034D01*
X-96080Y383364D01*
Y378636D01*
X-95340Y373966D01*
X-93879Y369469D01*
X-91733Y365256D01*
X-88953Y361430D01*
X-85610Y358087D01*
X-81784Y355308D01*
X-77571Y353161D01*
X-73074Y351700D01*
X-68404Y350960D01*
X-63676D01*
X-59006Y351700D01*
X-54509Y353161D01*
X-50296Y355308D01*
X-46470Y358087D01*
X-43127Y361430D01*
X-40347Y365256D01*
X-38201Y369469D01*
X-36740Y373966D01*
X-36000Y378636D01*
Y383364D01*
X-36740Y388034D01*
X-38201Y392531D01*
X-40347Y396744D01*
X-43127Y400570D01*
X-46470Y403913D01*
X-50296Y406693D01*
X-54509Y408839D01*
X-59006Y410300D01*
X-63676Y411040D01*
D02*
G37*
G36*
X-74930Y328903D02*
Y321310D01*
X-67337D01*
X-67916Y323471D01*
X-69086Y325499D01*
X-70741Y327154D01*
X-72769Y328324D01*
X-74930Y328903D01*
D02*
G37*
G36*
X-77470D02*
X-79631Y328324D01*
X-81659Y327154D01*
X-83314Y325499D01*
X-84484Y323471D01*
X-85063Y321310D01*
X-77470D01*
Y328903D01*
D02*
G37*
G36*
Y318770D02*
X-85063D01*
X-84484Y316609D01*
X-83314Y314581D01*
X-81659Y312926D01*
X-79631Y311756D01*
X-77470Y311177D01*
Y318770D01*
D02*
G37*
G36*
X-75030Y283210D02*
X-77370D01*
X-79631Y282604D01*
X-81659Y281434D01*
X-83314Y279779D01*
X-84484Y277751D01*
X-85090Y275490D01*
Y273150D01*
X-84484Y270889D01*
X-83314Y268861D01*
X-81659Y267206D01*
X-79631Y266036D01*
X-77370Y265430D01*
X-75030D01*
X-72769Y266036D01*
X-70741Y267206D01*
X-69086Y268861D01*
X-67916Y270889D01*
X-67310Y273150D01*
Y275490D01*
X-67916Y277751D01*
X-69086Y279779D01*
X-70741Y281434D01*
X-72769Y282604D01*
X-75030Y283210D01*
D02*
G37*
G36*
Y232410D02*
X-77370D01*
X-79631Y231804D01*
X-81659Y230634D01*
X-83314Y228979D01*
X-84484Y226951D01*
X-85090Y224690D01*
Y222350D01*
X-84484Y220089D01*
X-83314Y218061D01*
X-81659Y216406D01*
X-79631Y215236D01*
X-77370Y214630D01*
X-75030D01*
X-72769Y215236D01*
X-70741Y216406D01*
X-69086Y218061D01*
X-67916Y220089D01*
X-67310Y222350D01*
Y224690D01*
X-67916Y226951D01*
X-69086Y228979D01*
X-70741Y230634D01*
X-72769Y231804D01*
X-75030Y232410D01*
D02*
G37*
G36*
X26670Y171450D02*
X19077D01*
X19656Y169289D01*
X20826Y167261D01*
X22481Y165606D01*
X24509Y164436D01*
X26670Y163857D01*
Y171450D01*
D02*
G37*
G36*
X383364Y167200D02*
X378636D01*
X373966Y166460D01*
X369469Y164999D01*
X365256Y162852D01*
X361430Y160073D01*
X358087Y156730D01*
X355308Y152904D01*
X353161Y148691D01*
X351700Y144194D01*
X350960Y139524D01*
Y134796D01*
X351700Y130126D01*
X353161Y125629D01*
X354504Y122992D01*
X353629Y121911D01*
X352726Y122154D01*
X350082D01*
X347529Y121469D01*
X345239Y120148D01*
X343370Y118278D01*
X342048Y115989D01*
X341364Y113435D01*
Y110792D01*
X342048Y108238D01*
X343370Y105949D01*
X345239Y104080D01*
X347529Y102758D01*
X350082Y102074D01*
X352726D01*
X355279Y102758D01*
X357569Y104080D01*
X359438Y105949D01*
X360760Y108238D01*
X361444Y110792D01*
Y112667D01*
X362714Y113314D01*
X365256Y111468D01*
X369469Y109321D01*
X373966Y107860D01*
X378636Y107120D01*
X383364D01*
X388034Y107860D01*
X392531Y109321D01*
X396744Y111468D01*
X400570Y114247D01*
X403913Y117590D01*
X406693Y121416D01*
X408839Y125629D01*
X410300Y130126D01*
X411040Y134796D01*
Y139524D01*
X410300Y144194D01*
X408839Y148691D01*
X406693Y152904D01*
X403913Y156730D01*
X400570Y160073D01*
X396744Y162852D01*
X392531Y164999D01*
X388034Y166460D01*
X383364Y167200D01*
D02*
G37*
G36*
X-63676D02*
X-68404D01*
X-73074Y166460D01*
X-77571Y164999D01*
X-81784Y162852D01*
X-85610Y160073D01*
X-88953Y156730D01*
X-91733Y152904D01*
X-93879Y148691D01*
X-95340Y144194D01*
X-96080Y139524D01*
Y134796D01*
X-95340Y130126D01*
X-93879Y125629D01*
X-91733Y121416D01*
X-88953Y117590D01*
X-85610Y114247D01*
X-81784Y111468D01*
X-77571Y109321D01*
X-73074Y107860D01*
X-68404Y107120D01*
X-63676D01*
X-59006Y107860D01*
X-54509Y109321D01*
X-50296Y111468D01*
X-46470Y114247D01*
X-43127Y117590D01*
X-40347Y121416D01*
X-38201Y125629D01*
X-36740Y130126D01*
X-36000Y134796D01*
Y139524D01*
X-36740Y144194D01*
X-38201Y148691D01*
X-40347Y152904D01*
X-43127Y156730D01*
X-46470Y160073D01*
X-50296Y162852D01*
X-54509Y164999D01*
X-59006Y166460D01*
X-63676Y167200D01*
D02*
G37*
G36*
X361564Y95637D02*
X358921D01*
X356367Y94953D01*
X354078Y93631D01*
X354041Y93595D01*
X360243Y87393D01*
X366444Y93595D01*
X366407Y93631D01*
X364118Y94953D01*
X361564Y95637D01*
D02*
G37*
G36*
X352245Y91798D02*
X352209Y91762D01*
X350887Y89472D01*
X350203Y86919D01*
Y84275D01*
X350887Y81722D01*
X352209Y79432D01*
X352245Y79396D01*
X358447Y85597D01*
X352245Y91798D01*
D02*
G37*
G36*
X368240Y91798D02*
X362039Y85597D01*
X368240Y79396D01*
X368277Y79432D01*
X369599Y81722D01*
X370283Y84275D01*
Y86919D01*
X369599Y89472D01*
X368277Y91762D01*
X368240Y91798D01*
D02*
G37*
G36*
X360243Y83801D02*
X354041Y77600D01*
X354078Y77563D01*
X356367Y76241D01*
X358921Y75557D01*
X361564D01*
X364118Y76241D01*
X366407Y77563D01*
X366444Y77600D01*
X360243Y83801D01*
D02*
G37*
G36*
X-8331Y63817D02*
X-10975D01*
X-13528Y63133D01*
X-15818Y61811D01*
X-15854Y61775D01*
X-9653Y55573D01*
X-3452Y61775D01*
X-3488Y61811D01*
X-5778Y63133D01*
X-8331Y63817D01*
D02*
G37*
G36*
X-17650Y59979D02*
X-17687Y59942D01*
X-19009Y57653D01*
X-19693Y55099D01*
Y52456D01*
X-19009Y49902D01*
X-17687Y47613D01*
X-17650Y47576D01*
X-11449Y53777D01*
X-17650Y59979D01*
D02*
G37*
G36*
X-1655Y59979D02*
X-7857Y53777D01*
X-1655Y47576D01*
X-1619Y47613D01*
X-297Y49902D01*
X387Y52456D01*
Y55099D01*
X-297Y57653D01*
X-1619Y59942D01*
X-1655Y59979D01*
D02*
G37*
G36*
X-9653Y51981D02*
X-15854Y45780D01*
X-15818Y45743D01*
X-13528Y44422D01*
X-10975Y43737D01*
X-8331D01*
X-5778Y44422D01*
X-3488Y45743D01*
X-3452Y45780D01*
X-9653Y51981D01*
D02*
G37*
%LPD*%
G36*
X201391Y410003D02*
X202652Y409161D01*
X204138Y408865D01*
X259710D01*
Y384210D01*
X288215D01*
Y351790D01*
X278257D01*
Y339504D01*
X272838Y334085D01*
X244459D01*
X244446Y334133D01*
X243104Y336457D01*
X241207Y338354D01*
X238883Y339696D01*
X236292Y340390D01*
X233608D01*
X231017Y339696D01*
X228693Y338354D01*
X226796Y336457D01*
X225454Y334133D01*
X224760Y331542D01*
Y331336D01*
X223587Y330850D01*
X221490Y332947D01*
X220230Y333789D01*
X218743Y334085D01*
X92740D01*
Y338343D01*
X97516D01*
X99002Y338638D01*
X100263Y339481D01*
X130741Y369959D01*
X131583Y371219D01*
X131879Y372706D01*
Y380385D01*
X141704Y390210D01*
X181290D01*
Y428445D01*
X182463Y428931D01*
X201391Y410003D01*
D02*
G37*
G36*
X229098Y314351D02*
X228932Y313092D01*
X228693Y312954D01*
X226796Y311057D01*
X225454Y308733D01*
X224760Y306142D01*
Y303458D01*
X225454Y300867D01*
X226796Y298543D01*
X228693Y296646D01*
X231017Y295304D01*
X233608Y294610D01*
X236292D01*
X238883Y295304D01*
X241207Y296646D01*
X243104Y298543D01*
X244446Y300867D01*
X245140Y303458D01*
Y306142D01*
X244446Y308733D01*
X243104Y311057D01*
X242959Y311202D01*
X243445Y312375D01*
X283231D01*
X298891Y296715D01*
X298210Y294172D01*
Y291528D01*
X298894Y288975D01*
X300216Y286685D01*
X302085Y284816D01*
X304365Y283500D01*
Y237200D01*
X302085Y235884D01*
X300216Y234015D01*
X298894Y231725D01*
X298210Y229172D01*
Y226528D01*
X298894Y223975D01*
X300216Y221685D01*
X302085Y219816D01*
X304375Y218494D01*
X306928Y217810D01*
X307052D01*
X307538Y216637D01*
X261126Y170225D01*
X243445D01*
X242959Y171398D01*
X243104Y171543D01*
X244446Y173867D01*
X245140Y176458D01*
Y179142D01*
X244446Y181733D01*
X243104Y184057D01*
X241207Y185954D01*
X238883Y187296D01*
X236292Y187990D01*
X233608D01*
X231017Y187296D01*
X228693Y185954D01*
X226796Y184057D01*
X225454Y181733D01*
X224760Y179142D01*
Y176458D01*
X225454Y173867D01*
X226796Y171543D01*
X226941Y171398D01*
X226455Y170225D01*
X121019D01*
X92020Y199223D01*
X92046Y199267D01*
X92740Y201858D01*
Y204542D01*
X92046Y207133D01*
X90704Y209457D01*
X88807Y211354D01*
X86483Y212696D01*
X83892Y213390D01*
X81208D01*
X78617Y212696D01*
X76293Y211354D01*
X74396Y209457D01*
X73054Y207133D01*
X72360Y204542D01*
Y201858D01*
X73054Y199267D01*
X74396Y196943D01*
X76293Y195046D01*
X78617Y193704D01*
X81208Y193010D01*
X83892D01*
X86483Y193704D01*
X86527Y193730D01*
X113938Y166318D01*
X113452Y165145D01*
X84492D01*
X83200Y166437D01*
X83686Y167610D01*
X83892D01*
X86483Y168304D01*
X88807Y169646D01*
X90704Y171543D01*
X92046Y173867D01*
X92740Y176458D01*
Y179142D01*
X92046Y181733D01*
X90704Y184057D01*
X88807Y185954D01*
X86483Y187296D01*
X83892Y187990D01*
X81208D01*
X78617Y187296D01*
X76293Y185954D01*
X74396Y184057D01*
X73054Y181733D01*
X72360Y179142D01*
Y178936D01*
X71187Y178450D01*
X50275Y199362D01*
Y212317D01*
X51448Y212803D01*
X51535Y212716D01*
X53825Y211394D01*
X56378Y210710D01*
X56430D01*
Y220750D01*
Y230790D01*
X56378D01*
X53825Y230106D01*
X51535Y228784D01*
X51448Y228697D01*
X50275Y229183D01*
Y277317D01*
X51448Y277803D01*
X51535Y277716D01*
X53825Y276394D01*
X56378Y275710D01*
X56430D01*
Y285750D01*
X57700D01*
Y287020D01*
X67740D01*
Y287072D01*
X67056Y289625D01*
X65734Y291915D01*
X63865Y293784D01*
X61575Y295106D01*
X59022Y295790D01*
X58898D01*
X58412Y296963D01*
X62364Y300915D01*
X73041D01*
X73054Y300867D01*
X74396Y298543D01*
X76293Y296646D01*
X78617Y295304D01*
X81208Y294610D01*
X83892D01*
X86483Y295304D01*
X88807Y296646D01*
X90704Y298543D01*
X92046Y300867D01*
X92740Y303458D01*
Y306142D01*
X92046Y308733D01*
X90704Y311057D01*
X88807Y312954D01*
X86483Y314296D01*
X83892Y314990D01*
X81208D01*
X78617Y314296D01*
X76293Y312954D01*
X74396Y311057D01*
X73054Y308733D01*
X73041Y308685D01*
X60755D01*
X59269Y308389D01*
X58008Y307547D01*
X43643Y293182D01*
X42801Y291921D01*
X42505Y290435D01*
Y197753D01*
X42801Y196266D01*
X43643Y195006D01*
X80136Y158513D01*
X81397Y157671D01*
X82883Y157375D01*
X284369D01*
X310431Y131313D01*
X309945Y130140D01*
X259710D01*
Y129295D01*
X137172D01*
X135685Y128999D01*
X134425Y128157D01*
X111753Y105485D01*
X57790D01*
Y124646D01*
X63707Y130563D01*
X64549Y131823D01*
X64845Y133310D01*
Y156495D01*
X64549Y157982D01*
X63707Y159242D01*
X13412Y209537D01*
X13898Y210710D01*
X14022D01*
X16575Y211394D01*
X18865Y212716D01*
X20734Y214585D01*
X22056Y216875D01*
X22740Y219428D01*
Y222072D01*
X22056Y224625D01*
X20734Y226915D01*
X18865Y228784D01*
X16585Y230100D01*
Y276400D01*
X18865Y277716D01*
X20734Y279585D01*
X22056Y281875D01*
X22740Y284428D01*
Y287072D01*
X22059Y289615D01*
X58759Y326315D01*
X72360D01*
Y320010D01*
X92740D01*
Y326315D01*
X217134D01*
X229098Y314351D01*
D02*
G37*
G36*
X72360Y334085D02*
X57150D01*
X55663Y333789D01*
X54403Y332947D01*
X16565Y295109D01*
X14022Y295790D01*
X13898D01*
X13412Y296963D01*
X54792Y338343D01*
X72360D01*
Y334085D01*
D02*
G37*
G36*
X6535Y277716D02*
X8815Y276400D01*
Y230100D01*
X6535Y228784D01*
X6448Y228697D01*
X5275Y229183D01*
Y277317D01*
X6448Y277803D01*
X6535Y277716D01*
D02*
G37*
G36*
X57075Y154886D02*
Y134919D01*
X52296Y130140D01*
X7555D01*
X7069Y131313D01*
X29351Y153595D01*
X32617D01*
X33526Y152021D01*
X35181Y150366D01*
X37209Y149196D01*
X39470Y148590D01*
X41810D01*
X44071Y149196D01*
X46099Y150366D01*
X47754Y152021D01*
X48924Y154049D01*
X49530Y156310D01*
Y158650D01*
X48924Y160911D01*
X48474Y161692D01*
X49490Y162472D01*
X57075Y154886D01*
D02*
G37*
G36*
X259710Y73060D02*
X297376D01*
X297716Y71790D01*
X295742Y70650D01*
X293872Y68781D01*
X292556Y66501D01*
X259108D01*
X221262Y104347D01*
X220002Y105189D01*
X218515Y105485D01*
X181290D01*
Y121525D01*
X259710D01*
Y73060D01*
D02*
G37*
%LPC*%
G36*
X264572Y302890D02*
X264520D01*
Y294120D01*
X273290D01*
Y294172D01*
X272606Y296725D01*
X271284Y299015D01*
X269415Y300884D01*
X267125Y302206D01*
X264572Y302890D01*
D02*
G37*
G36*
X261980D02*
X261928D01*
X259375Y302206D01*
X257085Y300884D01*
X255216Y299015D01*
X253894Y296725D01*
X253210Y294172D01*
Y294120D01*
X261980D01*
Y302890D01*
D02*
G37*
G36*
X273290Y291580D02*
X264520D01*
Y282810D01*
X264572D01*
X267125Y283494D01*
X269415Y284816D01*
X271284Y286685D01*
X272606Y288975D01*
X273290Y291528D01*
Y291580D01*
D02*
G37*
G36*
X261980D02*
X253210D01*
Y291528D01*
X253894Y288975D01*
X255216Y286685D01*
X257085Y284816D01*
X259375Y283494D01*
X261928Y282810D01*
X261980D01*
Y291580D01*
D02*
G37*
G36*
X236292Y289590D02*
X236220D01*
Y280670D01*
X245140D01*
Y280742D01*
X244446Y283333D01*
X243104Y285657D01*
X241207Y287554D01*
X238883Y288896D01*
X236292Y289590D01*
D02*
G37*
G36*
X233680D02*
X233608D01*
X231017Y288896D01*
X228693Y287554D01*
X226796Y285657D01*
X225454Y283333D01*
X224760Y280742D01*
Y280670D01*
X233680D01*
Y289590D01*
D02*
G37*
G36*
X67740Y284480D02*
X58970D01*
Y275710D01*
X59022D01*
X61575Y276394D01*
X63865Y277716D01*
X65734Y279585D01*
X67056Y281875D01*
X67740Y284428D01*
Y284480D01*
D02*
G37*
G36*
X245140Y278130D02*
X236220D01*
Y269210D01*
X236292D01*
X238883Y269904D01*
X241207Y271246D01*
X243104Y273143D01*
X244446Y275467D01*
X245140Y278058D01*
Y278130D01*
D02*
G37*
G36*
X233680D02*
X224760D01*
Y278058D01*
X225454Y275467D01*
X226796Y273143D01*
X228693Y271246D01*
X231017Y269904D01*
X233608Y269210D01*
X233680D01*
Y278130D01*
D02*
G37*
G36*
X83892Y289590D02*
X81208D01*
X78617Y288896D01*
X76293Y287554D01*
X74396Y285657D01*
X73054Y283333D01*
X72360Y280742D01*
Y278058D01*
X73054Y275467D01*
X74396Y273143D01*
X76293Y271246D01*
X78617Y269904D01*
X81208Y269210D01*
X83892D01*
X86483Y269904D01*
X88807Y271246D01*
X90704Y273143D01*
X92046Y275467D01*
X92740Y278058D01*
Y280742D01*
X92046Y283333D01*
X90704Y285657D01*
X88807Y287554D01*
X86483Y288896D01*
X83892Y289590D01*
D02*
G37*
G36*
X236292Y264190D02*
X233608D01*
X231017Y263496D01*
X228693Y262154D01*
X226796Y260257D01*
X225454Y257933D01*
X224760Y255342D01*
Y252658D01*
X225454Y250067D01*
X226796Y247743D01*
X228693Y245846D01*
X231017Y244504D01*
X233608Y243810D01*
X236292D01*
X238883Y244504D01*
X241207Y245846D01*
X243104Y247743D01*
X244446Y250067D01*
X245140Y252658D01*
Y255342D01*
X244446Y257933D01*
X243104Y260257D01*
X241207Y262154D01*
X238883Y263496D01*
X236292Y264190D01*
D02*
G37*
G36*
X83892D02*
X81208D01*
X78617Y263496D01*
X76293Y262154D01*
X74396Y260257D01*
X73054Y257933D01*
X72360Y255342D01*
Y252658D01*
X73054Y250067D01*
X74396Y247743D01*
X76293Y245846D01*
X78617Y244504D01*
X81208Y243810D01*
X83892D01*
X86483Y244504D01*
X88807Y245846D01*
X90704Y247743D01*
X92046Y250067D01*
X92740Y252658D01*
Y255342D01*
X92046Y257933D01*
X90704Y260257D01*
X88807Y262154D01*
X86483Y263496D01*
X83892Y264190D01*
D02*
G37*
G36*
X264572Y237890D02*
X264520D01*
Y229120D01*
X273290D01*
Y229172D01*
X272606Y231725D01*
X271284Y234015D01*
X269415Y235884D01*
X267125Y237206D01*
X264572Y237890D01*
D02*
G37*
G36*
X261980D02*
X261928D01*
X259375Y237206D01*
X257085Y235884D01*
X255216Y234015D01*
X253894Y231725D01*
X253210Y229172D01*
Y229120D01*
X261980D01*
Y237890D01*
D02*
G37*
G36*
X59022Y230790D02*
X58970D01*
Y222020D01*
X67740D01*
Y222072D01*
X67056Y224625D01*
X65734Y226915D01*
X63865Y228784D01*
X61575Y230106D01*
X59022Y230790D01*
D02*
G37*
G36*
X236292Y238790D02*
X233608D01*
X231017Y238096D01*
X228693Y236754D01*
X226796Y234857D01*
X225454Y232533D01*
X224760Y229942D01*
Y227258D01*
X225454Y224667D01*
X226796Y222343D01*
X228693Y220446D01*
X231017Y219104D01*
X233608Y218410D01*
X236292D01*
X238883Y219104D01*
X241207Y220446D01*
X243104Y222343D01*
X244446Y224667D01*
X245140Y227258D01*
Y229942D01*
X244446Y232533D01*
X243104Y234857D01*
X241207Y236754D01*
X238883Y238096D01*
X236292Y238790D01*
D02*
G37*
G36*
X83892D02*
X81208D01*
X78617Y238096D01*
X76293Y236754D01*
X74396Y234857D01*
X73054Y232533D01*
X72360Y229942D01*
Y227258D01*
X73054Y224667D01*
X74396Y222343D01*
X76293Y220446D01*
X78617Y219104D01*
X81208Y218410D01*
X83892D01*
X86483Y219104D01*
X88807Y220446D01*
X90704Y222343D01*
X92046Y224667D01*
X92740Y227258D01*
Y229942D01*
X92046Y232533D01*
X90704Y234857D01*
X88807Y236754D01*
X86483Y238096D01*
X83892Y238790D01*
D02*
G37*
G36*
X273290Y226580D02*
X264520D01*
Y217810D01*
X264572D01*
X267125Y218494D01*
X269415Y219816D01*
X271284Y221685D01*
X272606Y223975D01*
X273290Y226528D01*
Y226580D01*
D02*
G37*
G36*
X261980D02*
X253210D01*
Y226528D01*
X253894Y223975D01*
X255216Y221685D01*
X257085Y219816D01*
X259375Y218494D01*
X261928Y217810D01*
X261980D01*
Y226580D01*
D02*
G37*
G36*
X67740Y219480D02*
X58970D01*
Y210710D01*
X59022D01*
X61575Y211394D01*
X63865Y212716D01*
X65734Y214585D01*
X67056Y216875D01*
X67740Y219428D01*
Y219480D01*
D02*
G37*
G36*
X236292Y213390D02*
X233608D01*
X231017Y212696D01*
X228693Y211354D01*
X226796Y209457D01*
X225454Y207133D01*
X224760Y204542D01*
Y201858D01*
X225454Y199267D01*
X226796Y196943D01*
X228693Y195046D01*
X231017Y193704D01*
X233608Y193010D01*
X236292D01*
X238883Y193704D01*
X241207Y195046D01*
X243104Y196943D01*
X244446Y199267D01*
X245140Y201858D01*
Y204542D01*
X244446Y207133D01*
X243104Y209457D01*
X241207Y211354D01*
X238883Y212696D01*
X236292Y213390D01*
D02*
G37*
%LPD*%
D11*
X27940Y172720D02*
Y180340D01*
X12700Y195580D02*
X27940Y180340D01*
X1390Y216065D02*
X60960Y156495D01*
X-45720Y197068D02*
Y289560D01*
Y197068D02*
X-44232Y195580D01*
X12700D01*
X-76200Y320040D02*
X-45720Y289560D01*
X218515Y101600D02*
X257499Y62616D01*
X301906D01*
X158750Y101600D02*
X218515D01*
X323343Y58857D02*
X328423Y53777D01*
X323343Y58857D02*
Y123895D01*
X285978Y161260D02*
X323343Y123895D01*
X60960Y133310D02*
Y156495D01*
X1390Y216065D02*
Y290435D01*
X82883Y161260D02*
X285978D01*
X46390Y197753D02*
X82883Y161260D01*
X46390Y197753D02*
Y290435D01*
X262735Y166340D02*
X325130Y228735D01*
X119410Y166340D02*
X262735D01*
X82550Y203200D02*
X119410Y166340D01*
X46390Y290435D02*
X60755Y304800D01*
X82550Y330200D02*
X218743D01*
X232683Y316260D01*
X57150Y330200D02*
X82550D01*
X204138Y412750D02*
X288250D01*
X292100Y408900D01*
X180328Y436560D02*
X204138Y412750D01*
X60755Y304800D02*
X82550D01*
X29250Y101600D02*
X60960Y133310D01*
X325130Y228735D02*
Y394910D01*
X358973Y428753D01*
X308250Y227850D02*
Y292850D01*
X-18286Y108784D02*
Y111452D01*
X-41473Y85597D02*
X-18286Y108784D01*
Y111452D02*
X27742Y157480D01*
X40640D01*
X45720Y355600D02*
Y369968D01*
X12700Y285750D02*
X57150Y330200D01*
X53183Y342227D02*
X97516D01*
X1390Y290435D02*
X53183Y342227D01*
X41531Y374157D02*
X45720Y369968D01*
X10454Y374157D02*
X41531D01*
X-3303Y387915D02*
Y460573D01*
Y387915D02*
X10454Y374157D01*
X97516Y342227D02*
X127994Y372706D01*
Y381994D01*
X158750Y412750D01*
X113362Y101600D02*
X137172Y125410D01*
X264440D01*
X288250Y101600D01*
X29250D02*
X113362D01*
X53060Y436560D02*
X180328D01*
X29250Y412750D02*
X53060Y436560D01*
X292100Y342900D02*
Y408900D01*
X283972Y339725D02*
Y342900D01*
X234950Y330200D02*
X274447D01*
X283972Y339725D01*
X284840Y316260D02*
X308250Y292850D01*
X232683Y316260D02*
X284840D01*
X12700Y220750D02*
Y285750D01*
D33*
X386080Y381000D02*
D03*
X381000Y137160D02*
D03*
X-66040D02*
D03*
Y381000D02*
D03*
D34*
X263250Y227850D02*
D03*
X308250D02*
D03*
X263250Y292850D02*
D03*
X308250D02*
D03*
X57700Y285750D02*
D03*
X12700D02*
D03*
X57700Y220750D02*
D03*
X12700D02*
D03*
X23214Y451734D02*
D03*
X-26284Y402236D02*
D03*
X-3303Y460573D02*
D03*
X-35123Y428753D02*
D03*
X-32634Y112114D02*
D03*
X16864Y62616D02*
D03*
X-41473Y85597D02*
D03*
X-9653Y53777D02*
D03*
X301906Y62616D02*
D03*
X351404Y112114D02*
D03*
X328423Y53777D02*
D03*
X360243Y85597D02*
D03*
X350134Y402236D02*
D03*
X300636Y451734D02*
D03*
X358973Y428753D02*
D03*
X327153Y460573D02*
D03*
D35*
X82550Y330200D02*
D03*
D36*
Y304800D02*
D03*
Y279400D02*
D03*
Y254000D02*
D03*
Y228600D02*
D03*
Y203200D02*
D03*
Y177800D02*
D03*
X234950D02*
D03*
Y203200D02*
D03*
Y228600D02*
D03*
Y254000D02*
D03*
Y279400D02*
D03*
Y304800D02*
D03*
Y330200D02*
D03*
D37*
X27940Y172720D02*
D03*
X-76200Y223520D02*
D03*
Y274320D02*
D03*
Y320040D02*
D03*
X40640Y157480D02*
D03*
X45720Y355600D02*
D03*
D38*
X158750Y101600D02*
D03*
X158750Y412750D02*
D03*
D39*
X29250Y101600D02*
D03*
X288250D02*
D03*
X29250Y412750D02*
D03*
X288250D02*
D03*
D40*
X292100Y342900D02*
D03*
X283972D02*
D03*
M02*
