G04*
G04 #@! TF.GenerationSoftware,Altium Limited,Altium Designer,23.9.2 (47)*
G04*
G04 Layer_Color=8421504*
%FSLAX44Y44*%
%MOMM*%
G71*
G04*
G04 #@! TF.SameCoordinates,59006CB8-04EA-46C6-BC13-78CBB85C9A35*
G04*
G04*
G04 #@! TF.FilePolarity,Positive*
G04*
G01*
G75*
%ADD16P,1.4142X4X345.0*%
%ADD17P,1.4142X4X105.0*%
%ADD18R,1.0000X1.0000*%
%ADD19P,1.4142X4X375.0*%
%ADD20P,1.4142X4X255.0*%
%ADD21R,1.0000X1.0000*%
D16*
X311704Y361290D02*
D03*
X300446Y354790D02*
D03*
X310596Y337210D02*
D03*
X321854Y343710D02*
D03*
X-4354Y170640D02*
D03*
X6904Y177140D02*
D03*
X17054Y159560D02*
D03*
X5796Y153060D02*
D03*
D17*
X-4354Y337360D02*
D03*
X6904Y330860D02*
D03*
X17054Y348440D02*
D03*
X5796Y354940D02*
D03*
X318054Y159410D02*
D03*
X306796Y165910D02*
D03*
X316946Y183490D02*
D03*
X328204Y176990D02*
D03*
D18*
X148600Y438300D02*
D03*
Y425300D02*
D03*
X168900D02*
D03*
Y438300D02*
D03*
X148600Y69700D02*
D03*
Y82700D02*
D03*
X168900D02*
D03*
Y69700D02*
D03*
D19*
X242920Y421458D02*
D03*
X236420Y410200D02*
D03*
X254000Y400050D02*
D03*
X260500Y411308D02*
D03*
X64160Y94696D02*
D03*
X70660Y105954D02*
D03*
X88240Y95804D02*
D03*
X81740Y84546D02*
D03*
D20*
X236420Y85100D02*
D03*
X229920Y96358D02*
D03*
X247500Y106508D02*
D03*
X254000Y95250D02*
D03*
X69700Y417658D02*
D03*
X76200Y406400D02*
D03*
X58620Y396250D02*
D03*
X52120Y407508D02*
D03*
D21*
X343200Y241300D02*
D03*
X330200D02*
D03*
Y261600D02*
D03*
X343200D02*
D03*
X-25700Y267950D02*
D03*
X-12700D02*
D03*
Y247650D02*
D03*
X-25700D02*
D03*
M02*
