G04*
G04 #@! TF.GenerationSoftware,Altium Limited,Altium Designer,23.9.2 (47)*
G04*
G04 Layer_Physical_Order=1*
G04 Layer_Color=255*
%FSLAX44Y44*%
%MOMM*%
G71*
G04*
G04 #@! TF.SameCoordinates,59006CB8-04EA-46C6-BC13-78CBB85C9A35*
G04*
G04*
G04 #@! TF.FilePolarity,Positive*
G04*
G01*
G75*
%ADD11C,0.2540*%
%ADD16P,1.4142X4X345.0*%
%ADD17P,1.4142X4X105.0*%
%ADD18R,1.0000X1.0000*%
%ADD19P,1.4142X4X375.0*%
%ADD20P,1.4142X4X255.0*%
%ADD21R,1.0000X1.0000*%
%ADD33C,5.5000*%
%ADD34C,1.5000*%
%ADD35R,1.5300X1.5300*%
%ADD36C,1.5300*%
%ADD37C,1.2700*%
G36*
X419100Y406400D02*
Y101600D01*
X317500Y0D01*
X0D01*
X-101600Y101600D01*
Y406400D01*
X0Y508000D01*
X317500D01*
X419100Y406400D01*
D02*
G37*
%LPC*%
G36*
X24535Y461774D02*
X21892D01*
X19338Y461090D01*
X17049Y459768D01*
X17012Y459731D01*
X23214Y453530D01*
X29415Y459731D01*
X29378Y459768D01*
X27089Y461090D01*
X24535Y461774D01*
D02*
G37*
G36*
X301958Y461774D02*
X299315D01*
X296761Y461090D01*
X294472Y459768D01*
X294435Y459731D01*
X300637Y453530D01*
X306838Y459731D01*
X306801Y459768D01*
X304512Y461090D01*
X301958Y461774D01*
D02*
G37*
G36*
X328475Y470613D02*
X325831D01*
X323278Y469929D01*
X320988Y468607D01*
X319119Y466737D01*
X317797Y464448D01*
X317113Y461894D01*
Y459251D01*
X317797Y456698D01*
X319119Y454408D01*
X320988Y452539D01*
X323278Y451217D01*
X325831Y450533D01*
X328475D01*
X331028Y451217D01*
X333318Y452539D01*
X335187Y454408D01*
X336509Y456698D01*
X337193Y459251D01*
Y461894D01*
X336509Y464448D01*
X335187Y466737D01*
X333318Y468607D01*
X331028Y469929D01*
X328475Y470613D01*
D02*
G37*
G36*
X-1981Y470613D02*
X-4625D01*
X-7178Y469929D01*
X-9468Y468607D01*
X-11337Y466737D01*
X-12659Y464448D01*
X-13343Y461894D01*
Y459251D01*
X-12659Y456697D01*
X-11337Y454408D01*
X-9468Y452539D01*
X-7178Y451217D01*
X-4625Y450533D01*
X-1981D01*
X572Y451217D01*
X2862Y452539D01*
X4731Y454408D01*
X6053Y456697D01*
X6737Y459251D01*
Y461894D01*
X6053Y464448D01*
X4731Y466737D01*
X2862Y468607D01*
X572Y469929D01*
X-1981Y470613D01*
D02*
G37*
G36*
X308634Y457935D02*
X302432Y451734D01*
X308634Y445533D01*
X308670Y445569D01*
X309992Y447859D01*
X310676Y450412D01*
Y453056D01*
X309992Y455609D01*
X308670Y457899D01*
X308634Y457935D01*
D02*
G37*
G36*
X15216Y457935D02*
X15180Y457899D01*
X13858Y455609D01*
X13174Y453056D01*
Y450412D01*
X13858Y447859D01*
X15180Y445569D01*
X15216Y445533D01*
X21418Y451734D01*
X15216Y457935D01*
D02*
G37*
G36*
X23214Y449938D02*
X17012Y443737D01*
X17049Y443700D01*
X19338Y442378D01*
X21892Y441694D01*
X24535D01*
X27089Y442378D01*
X29378Y443700D01*
X29415Y443736D01*
X23214Y449938D01*
D02*
G37*
G36*
X292639Y457935D02*
X292602Y457899D01*
X291286Y455619D01*
X182334D01*
X180847Y455323D01*
X179587Y454481D01*
X170946Y445840D01*
X170170D01*
Y438300D01*
X167630D01*
Y445840D01*
X165130D01*
X163924Y446201D01*
X163791Y447149D01*
X163767Y447217D01*
Y447217D01*
X163743Y447387D01*
X163683Y447560D01*
X163671Y447642D01*
X163647Y447710D01*
X163625Y447749D01*
X163571Y448017D01*
X163470Y448169D01*
X163410Y448341D01*
X163192Y448585D01*
X163010Y448857D01*
X162858Y448959D01*
X162737Y449095D01*
X162442Y449237D01*
X162170Y449418D01*
X161991Y449454D01*
X161826Y449533D01*
X161553Y449549D01*
X161512Y449566D01*
X161441Y449580D01*
X161358D01*
X161179Y449616D01*
X161007D01*
X160936Y449630D01*
X156564D01*
X156493Y449616D01*
X156321D01*
X156142Y449580D01*
X156059D01*
X155988Y449566D01*
X155947Y449549D01*
X155674Y449533D01*
X155509Y449454D01*
X155330Y449418D01*
X155058Y449237D01*
X154763Y449095D01*
X154642Y448959D01*
X154490Y448857D01*
X154308Y448585D01*
X154090Y448341D01*
X154030Y448169D01*
X153929Y448017D01*
X153875Y447749D01*
X153853Y447710D01*
X153829Y447642D01*
X153817Y447560D01*
X153757Y447387D01*
X153733Y447217D01*
X153709Y447149D01*
X153576Y446201D01*
X152370Y445840D01*
X144830D01*
X143624Y446201D01*
X143491Y447149D01*
X143467Y447217D01*
Y447217D01*
X143443Y447387D01*
X143383Y447560D01*
X143371Y447642D01*
X143348Y447710D01*
X143325Y447749D01*
X143271Y448017D01*
X143170Y448169D01*
X143110Y448341D01*
X142892Y448585D01*
X142710Y448857D01*
X142558Y448959D01*
X142437Y449095D01*
X142142Y449237D01*
X141870Y449418D01*
X141691Y449454D01*
X141526Y449533D01*
X141253Y449549D01*
X141212Y449566D01*
X141141Y449580D01*
X141058D01*
X140879Y449616D01*
X140707D01*
X140636Y449630D01*
X76434D01*
X76167Y449689D01*
X76115Y449679D01*
X76062Y449689D01*
X75813Y449634D01*
X75648Y449637D01*
X75456Y449562D01*
X75173Y449512D01*
X75127Y449483D01*
X75075Y449472D01*
X74885Y449340D01*
X74707Y449270D01*
X74518Y449149D01*
X74347Y448985D01*
X74321Y448969D01*
X74308Y448957D01*
X74308Y448956D01*
X74119Y448835D01*
X59715Y435008D01*
X59684Y434964D01*
X58926Y434741D01*
X58370Y434722D01*
X58108Y434769D01*
X58068Y434784D01*
X38371Y454481D01*
X37111Y455323D01*
X35624Y455619D01*
X32564D01*
X31248Y457899D01*
X31211Y457935D01*
X25010Y451734D01*
X31211Y445533D01*
X31248Y445569D01*
X32564Y447849D01*
X34015D01*
X52362Y429502D01*
X52469Y429197D01*
X52471Y429100D01*
X52238Y427830D01*
X13809Y390938D01*
X-5150Y372737D01*
X-5284Y372724D01*
X-6548Y372778D01*
X-22399Y388629D01*
Y392886D01*
X-20119Y394202D01*
X-20083Y394239D01*
X-26284Y400440D01*
X-32485Y394239D01*
X-32449Y394202D01*
X-30169Y392886D01*
Y387020D01*
X-29873Y385533D01*
X-29031Y384273D01*
X-10514Y365757D01*
X-10946Y364763D01*
X-11118Y364565D01*
X-19448D01*
X-20935Y364269D01*
X-22195Y363427D01*
X-28447Y357175D01*
X-29289Y355915D01*
X-29585Y354428D01*
Y348103D01*
X-29744Y347812D01*
X-30731Y347006D01*
X-30855Y346988D01*
X-31223Y347008D01*
X-31264Y346993D01*
X-31308Y346994D01*
X-31724Y346832D01*
X-31879Y346804D01*
X-31975Y346743D01*
X-32176Y346672D01*
X-32208Y346642D01*
X-32249Y346627D01*
X-32332Y346574D01*
X-32515Y346397D01*
X-32731Y346260D01*
X-47347Y332229D01*
X-47483Y332034D01*
X-47495Y332025D01*
X-47508Y332013D01*
X-47538Y331967D01*
X-47706Y331799D01*
X-47818Y331632D01*
X-47898Y331439D01*
X-47925Y331400D01*
X-47926Y331397D01*
X-48049Y331221D01*
X-48054Y331195D01*
X-48069Y331172D01*
X-48111Y330962D01*
X-48113Y330960D01*
X-48122Y330913D01*
X-48206Y330721D01*
X-48249Y330526D01*
X-48254Y330288D01*
X-48266Y330234D01*
X-48266Y330216D01*
X-48264Y330201D01*
X-48310Y329969D01*
Y260345D01*
X-68660D01*
X-70147Y260049D01*
X-71407Y259207D01*
X-78947Y251667D01*
X-79789Y250407D01*
X-80085Y248920D01*
Y231542D01*
X-81659Y230634D01*
X-83314Y228979D01*
X-84484Y226951D01*
X-85090Y224690D01*
Y222350D01*
X-84484Y220089D01*
X-83314Y218061D01*
X-81659Y216406D01*
X-79631Y215236D01*
X-77370Y214630D01*
X-75030D01*
X-72769Y215236D01*
X-70741Y216406D01*
X-69086Y218061D01*
X-67916Y220089D01*
X-67310Y222350D01*
Y224690D01*
X-67916Y226951D01*
X-69086Y228979D01*
X-70741Y230634D01*
X-72315Y231542D01*
Y247311D01*
X-67051Y252575D01*
X-48310D01*
Y188215D01*
X-48260Y187965D01*
X-48260Y187710D01*
X-48213Y187474D01*
X-48116Y187239D01*
X-48113Y187224D01*
X-48104Y187212D01*
X-47935Y186803D01*
X-47932Y186789D01*
X-47924Y186776D01*
X-47826Y186541D01*
X-47693Y186341D01*
X-47513Y186161D01*
X-47371Y185948D01*
X-20955Y159533D01*
X-35381Y145107D01*
X-35596Y144785D01*
X-36994Y144978D01*
X-38201Y148691D01*
X-40347Y152904D01*
X-43127Y156730D01*
X-46470Y160073D01*
X-50296Y162852D01*
X-54509Y164999D01*
X-59006Y166460D01*
X-63676Y167200D01*
X-68404D01*
X-73074Y166460D01*
X-77571Y164999D01*
X-81784Y162852D01*
X-85610Y160073D01*
X-88953Y156730D01*
X-91733Y152904D01*
X-93879Y148691D01*
X-95340Y144194D01*
X-96080Y139524D01*
Y134796D01*
X-95340Y130126D01*
X-93879Y125629D01*
X-91733Y121416D01*
X-88953Y117590D01*
X-85610Y114247D01*
X-81784Y111468D01*
X-77571Y109321D01*
X-73074Y107860D01*
X-68404Y107120D01*
X-63676D01*
X-59006Y107860D01*
X-54509Y109321D01*
X-50296Y111468D01*
X-46470Y114247D01*
X-43127Y117590D01*
X-40347Y121416D01*
X-38201Y125629D01*
X-37789Y126898D01*
X-36518Y126697D01*
Y121464D01*
X-38799Y120148D01*
X-38835Y120111D01*
X-32634Y113910D01*
X-26432Y120111D01*
X-26469Y120148D01*
X-28749Y121464D01*
Y140751D01*
X-15461Y154039D01*
X43666Y94912D01*
X20728Y71975D01*
X18185Y72656D01*
X15542D01*
X12988Y71972D01*
X10699Y70650D01*
X10662Y70613D01*
X17762Y63514D01*
X24861Y56415D01*
X24898Y56451D01*
X26214Y58731D01*
X143904D01*
X145391Y59027D01*
X146651Y59869D01*
X148942Y62160D01*
X156140D01*
Y69358D01*
X160187Y73405D01*
X161360Y72919D01*
Y62160D01*
X172670D01*
X173876Y61799D01*
X174009Y60851D01*
X174033Y60783D01*
Y60783D01*
X174057Y60613D01*
X174117Y60440D01*
X174129Y60358D01*
X174153Y60290D01*
X174175Y60251D01*
X174229Y59983D01*
X174330Y59831D01*
X174390Y59659D01*
X174608Y59415D01*
X174790Y59143D01*
X174942Y59041D01*
X175063Y58905D01*
X175358Y58763D01*
X175630Y58582D01*
X175809Y58546D01*
X175974Y58467D01*
X176247Y58451D01*
X176288Y58434D01*
X176359Y58420D01*
X176442D01*
X176621Y58384D01*
X176793D01*
X176864Y58370D01*
X258825D01*
X259075Y58420D01*
X259330Y58420D01*
X259566Y58467D01*
X259802Y58565D01*
X259816Y58567D01*
X259828Y58576D01*
X260237Y58745D01*
X260251Y58748D01*
X260264Y58756D01*
X260499Y58854D01*
X260699Y58987D01*
X260879Y59167D01*
X261092Y59309D01*
X265745Y63963D01*
X276217Y53491D01*
X277477Y52649D01*
X278964Y52353D01*
X292290D01*
X293777Y52649D01*
X295037Y53491D01*
X295987Y54441D01*
X298031Y53260D01*
X300585Y52576D01*
X303228D01*
X305782Y53260D01*
X308071Y54582D01*
X308108Y54619D01*
X301008Y61718D01*
X293909Y68818D01*
X293872Y68781D01*
X292551Y66491D01*
X291866Y63938D01*
Y61308D01*
X290681Y60122D01*
X280573D01*
X271239Y69456D01*
X323318Y121536D01*
X341865Y102988D01*
X343126Y102146D01*
X344612Y101851D01*
X346099Y102146D01*
X347253Y102917D01*
X347529Y102758D01*
X350082Y102074D01*
X352726D01*
X355279Y102758D01*
X357569Y104080D01*
X357605Y104116D01*
X350506Y111216D01*
X352302Y113012D01*
X359401Y105912D01*
X359438Y105949D01*
X360760Y108238D01*
X361444Y110792D01*
Y112667D01*
X362714Y113314D01*
X365256Y111468D01*
X369469Y109321D01*
X373966Y107860D01*
X378636Y107120D01*
X383364D01*
X388034Y107860D01*
X392531Y109321D01*
X396744Y111468D01*
X400570Y114247D01*
X403913Y117590D01*
X406693Y121416D01*
X408839Y125629D01*
X410300Y130126D01*
X411040Y134796D01*
Y139524D01*
X410300Y144194D01*
X408839Y148691D01*
X406693Y152904D01*
X403913Y156730D01*
X400570Y160073D01*
X396744Y162852D01*
X392531Y164999D01*
X388034Y166460D01*
X383364Y167200D01*
X378636D01*
X373966Y166460D01*
X369469Y164999D01*
X367652Y164074D01*
X366896Y165114D01*
X377571Y175788D01*
X377713Y176000D01*
X377893Y176181D01*
X378026Y176381D01*
X378027Y176381D01*
X378124Y176616D01*
X378132Y176629D01*
X378135Y176643D01*
X378304Y177052D01*
X378313Y177064D01*
X378316Y177078D01*
X378413Y177314D01*
X378460Y177550D01*
Y177805D01*
X378510Y178055D01*
Y335025D01*
X378460Y335275D01*
X378460Y335530D01*
X378413Y335766D01*
X378316Y336002D01*
X378313Y336016D01*
X378304Y336028D01*
X378135Y336437D01*
X378132Y336451D01*
X378124Y336464D01*
X378027Y336699D01*
X377893Y336899D01*
X377713Y337079D01*
X377571Y337292D01*
X334127Y380736D01*
X346269Y392878D01*
X348812Y392196D01*
X351456D01*
X354009Y392881D01*
X356299Y394202D01*
X356335Y394239D01*
X349236Y401338D01*
X342136Y408438D01*
X342100Y408401D01*
X340778Y406112D01*
X340094Y403558D01*
Y400915D01*
X340775Y398372D01*
X328633Y386229D01*
X284702Y430161D01*
X296886Y442345D01*
X299315Y441694D01*
X301958D01*
X304512Y442378D01*
X306801Y443700D01*
X306838Y443737D01*
X299738Y450836D01*
X292639Y457935D01*
D02*
G37*
G36*
X360294Y438793D02*
X357651D01*
X355097Y438109D01*
X352808Y436787D01*
X350939Y434918D01*
X349617Y432628D01*
X348933Y430075D01*
Y427431D01*
X349617Y424878D01*
X350939Y422588D01*
X352808Y420719D01*
X355097Y419397D01*
X357651Y418713D01*
X360294D01*
X362848Y419397D01*
X365137Y420719D01*
X367007Y422588D01*
X368329Y424878D01*
X369013Y427431D01*
Y430075D01*
X368329Y432628D01*
X367007Y434918D01*
X365137Y436787D01*
X362848Y438109D01*
X360294Y438793D01*
D02*
G37*
G36*
X-33801Y438793D02*
X-36444D01*
X-38998Y438109D01*
X-41287Y436787D01*
X-43157Y434918D01*
X-44479Y432628D01*
X-45163Y430075D01*
Y427431D01*
X-44479Y424878D01*
X-43157Y422588D01*
X-41287Y420719D01*
X-38998Y419397D01*
X-36444Y418713D01*
X-33801D01*
X-31247Y419397D01*
X-28958Y420719D01*
X-27089Y422588D01*
X-25767Y424878D01*
X-25083Y427431D01*
Y430075D01*
X-25767Y432628D01*
X-27089Y434918D01*
X-28958Y436787D01*
X-31247Y438109D01*
X-33801Y438793D01*
D02*
G37*
G36*
X351456Y412276D02*
X348812D01*
X346259Y411592D01*
X343969Y410270D01*
X343933Y410234D01*
X350134Y404032D01*
X356335Y410234D01*
X356299Y410270D01*
X354009Y411592D01*
X351456Y412276D01*
D02*
G37*
G36*
X-24962Y412276D02*
X-27606D01*
X-30159Y411592D01*
X-32449Y410270D01*
X-32485Y410234D01*
X-26284Y404032D01*
X-20083Y410234D01*
X-20119Y410270D01*
X-22409Y411592D01*
X-24962Y412276D01*
D02*
G37*
G36*
X358131Y408438D02*
X351930Y402236D01*
X358131Y396035D01*
X358168Y396072D01*
X359490Y398361D01*
X360174Y400915D01*
Y403558D01*
X359490Y406112D01*
X358168Y408401D01*
X358131Y408438D01*
D02*
G37*
G36*
X-34281Y408438D02*
X-34318Y408401D01*
X-35640Y406112D01*
X-36324Y403558D01*
Y400915D01*
X-35640Y398361D01*
X-34318Y396072D01*
X-34281Y396035D01*
X-28080Y402236D01*
X-34281Y408438D01*
D02*
G37*
G36*
X-18287D02*
X-24488Y402236D01*
X-18287Y396035D01*
X-18250Y396072D01*
X-16928Y398361D01*
X-16244Y400915D01*
Y403558D01*
X-16928Y406112D01*
X-18250Y408401D01*
X-18287Y408438D01*
D02*
G37*
G36*
X388444Y411040D02*
X383716D01*
X379046Y410300D01*
X374549Y408839D01*
X370336Y406693D01*
X366510Y403913D01*
X363167Y400570D01*
X360387Y396744D01*
X358241Y392531D01*
X356780Y388034D01*
X356040Y383364D01*
Y378636D01*
X356780Y373966D01*
X358241Y369469D01*
X360387Y365256D01*
X363167Y361430D01*
X366510Y358087D01*
X370336Y355308D01*
X374549Y353161D01*
X379046Y351700D01*
X383716Y350960D01*
X388444D01*
X393114Y351700D01*
X397611Y353161D01*
X401824Y355308D01*
X405650Y358087D01*
X408993Y361430D01*
X411772Y365256D01*
X413919Y369469D01*
X415380Y373966D01*
X416120Y378636D01*
Y383364D01*
X415380Y388034D01*
X413919Y392531D01*
X411772Y396744D01*
X408993Y400570D01*
X405650Y403913D01*
X401824Y406693D01*
X397611Y408839D01*
X393114Y410300D01*
X388444Y411040D01*
D02*
G37*
G36*
X-63676D02*
X-68404D01*
X-73074Y410300D01*
X-77571Y408839D01*
X-81784Y406693D01*
X-85610Y403913D01*
X-88953Y400570D01*
X-91733Y396744D01*
X-93879Y392531D01*
X-95340Y388034D01*
X-96080Y383364D01*
Y378636D01*
X-95340Y373966D01*
X-93879Y369469D01*
X-91733Y365256D01*
X-88953Y361430D01*
X-85610Y358087D01*
X-81784Y355308D01*
X-77571Y353161D01*
X-73074Y351700D01*
X-68404Y350960D01*
X-63676D01*
X-59006Y351700D01*
X-54509Y353161D01*
X-50296Y355308D01*
X-46470Y358087D01*
X-43127Y361430D01*
X-40347Y365256D01*
X-38201Y369469D01*
X-36740Y373966D01*
X-36000Y378636D01*
Y383364D01*
X-36740Y388034D01*
X-38201Y392531D01*
X-40347Y396744D01*
X-43127Y400570D01*
X-46470Y403913D01*
X-50296Y406693D01*
X-54509Y408839D01*
X-59006Y410300D01*
X-63676Y411040D01*
D02*
G37*
G36*
X-75030Y328930D02*
X-77370D01*
X-79631Y328324D01*
X-81659Y327154D01*
X-83314Y325499D01*
X-84484Y323471D01*
X-85090Y321210D01*
Y318870D01*
X-84484Y316609D01*
X-83314Y314581D01*
X-81659Y312926D01*
X-79631Y311756D01*
X-77370Y311150D01*
X-75030D01*
X-72769Y311756D01*
X-70741Y312926D01*
X-69086Y314581D01*
X-67916Y316609D01*
X-67310Y318870D01*
Y321210D01*
X-67916Y323471D01*
X-69086Y325499D01*
X-70741Y327154D01*
X-72769Y328324D01*
X-75030Y328930D01*
D02*
G37*
G36*
X-74930Y283183D02*
Y275590D01*
X-67337D01*
X-67916Y277751D01*
X-69086Y279779D01*
X-70741Y281434D01*
X-72769Y282604D01*
X-74930Y283183D01*
D02*
G37*
G36*
X-77470D02*
X-79631Y282604D01*
X-81659Y281434D01*
X-83314Y279779D01*
X-84484Y277751D01*
X-85063Y275590D01*
X-77470D01*
Y283183D01*
D02*
G37*
G36*
X-67337Y273050D02*
X-74930D01*
Y265457D01*
X-72769Y266036D01*
X-70741Y267206D01*
X-69086Y268861D01*
X-67916Y270889D01*
X-67337Y273050D01*
D02*
G37*
G36*
X-77470D02*
X-85063D01*
X-84484Y270889D01*
X-83314Y268861D01*
X-81659Y267206D01*
X-79631Y266036D01*
X-77470Y265457D01*
Y273050D01*
D02*
G37*
G36*
X-40631Y118315D02*
X-40668Y118278D01*
X-41990Y115989D01*
X-42674Y113435D01*
Y110792D01*
X-41990Y108238D01*
X-40668Y105949D01*
X-40631Y105912D01*
X-34430Y112114D01*
X-40631Y118315D01*
D02*
G37*
G36*
X-24636D02*
X-30838Y112114D01*
X-24636Y105912D01*
X-24600Y105949D01*
X-23278Y108238D01*
X-22594Y110792D01*
Y113435D01*
X-23278Y115989D01*
X-24600Y118278D01*
X-24636Y118315D01*
D02*
G37*
G36*
X-32634Y110317D02*
X-38835Y104116D01*
X-38799Y104080D01*
X-36509Y102758D01*
X-33956Y102074D01*
X-31312D01*
X-28759Y102758D01*
X-26469Y104080D01*
X-26432Y104116D01*
X-32634Y110317D01*
D02*
G37*
G36*
X361564Y95637D02*
X358921D01*
X356367Y94953D01*
X354078Y93631D01*
X352209Y91762D01*
X350887Y89472D01*
X350203Y86919D01*
Y84275D01*
X350887Y81722D01*
X352209Y79432D01*
X354078Y77563D01*
X356367Y76241D01*
X358921Y75557D01*
X361564D01*
X364118Y76241D01*
X366407Y77563D01*
X368277Y79432D01*
X369599Y81722D01*
X370283Y84275D01*
Y86919D01*
X369599Y89472D01*
X368277Y91762D01*
X366407Y93631D01*
X364118Y94953D01*
X361564Y95637D01*
D02*
G37*
G36*
X-40151Y95637D02*
X-42794D01*
X-45348Y94953D01*
X-47637Y93631D01*
X-49507Y91762D01*
X-50828Y89472D01*
X-51513Y86919D01*
Y84275D01*
X-50828Y81722D01*
X-49507Y79432D01*
X-47637Y77563D01*
X-45348Y76241D01*
X-42794Y75557D01*
X-40151D01*
X-37597Y76241D01*
X-35308Y77563D01*
X-33439Y79432D01*
X-32117Y81722D01*
X-31433Y84275D01*
Y86919D01*
X-32117Y89472D01*
X-33439Y91762D01*
X-35308Y93631D01*
X-37597Y94953D01*
X-40151Y95637D01*
D02*
G37*
G36*
X303228Y72656D02*
X300585D01*
X298031Y71972D01*
X295742Y70650D01*
X295705Y70613D01*
X301906Y64412D01*
X308108Y70613D01*
X308071Y70650D01*
X305782Y71972D01*
X303228Y72656D01*
D02*
G37*
G36*
X309904Y68818D02*
X303703Y62616D01*
X309904Y56415D01*
X309940Y56451D01*
X311262Y58741D01*
X311946Y61294D01*
Y63938D01*
X311262Y66491D01*
X309940Y68781D01*
X309904Y68818D01*
D02*
G37*
G36*
X8866Y68817D02*
X8830Y68781D01*
X7508Y66491D01*
X6824Y63938D01*
Y61294D01*
X7508Y58741D01*
X8830Y56451D01*
X8866Y56415D01*
X15068Y62616D01*
X8866Y68817D01*
D02*
G37*
G36*
X16864Y60820D02*
X10662Y54619D01*
X10699Y54582D01*
X12988Y53260D01*
X15542Y52576D01*
X18185D01*
X20739Y53260D01*
X23028Y54582D01*
X23065Y54619D01*
X16864Y60820D01*
D02*
G37*
G36*
X329745Y63817D02*
X327101D01*
X324548Y63133D01*
X322258Y61811D01*
X320389Y59942D01*
X319067Y57653D01*
X318383Y55099D01*
Y52456D01*
X319067Y49902D01*
X320389Y47613D01*
X322258Y45743D01*
X324548Y44422D01*
X327101Y43737D01*
X329745D01*
X332298Y44422D01*
X334588Y45743D01*
X336457Y47613D01*
X337779Y49902D01*
X338463Y52456D01*
Y55099D01*
X337779Y57653D01*
X336457Y59942D01*
X334588Y61811D01*
X332298Y63133D01*
X329745Y63817D01*
D02*
G37*
G36*
X-8331Y63817D02*
X-10975D01*
X-13528Y63133D01*
X-15818Y61811D01*
X-17687Y59942D01*
X-19009Y57653D01*
X-19693Y55099D01*
Y52456D01*
X-19009Y49902D01*
X-17687Y47613D01*
X-15818Y45743D01*
X-13528Y44422D01*
X-10975Y43737D01*
X-8331D01*
X-5778Y44422D01*
X-3488Y45743D01*
X-1619Y47613D01*
X-297Y49902D01*
X387Y52456D01*
Y55099D01*
X-297Y57653D01*
X-1619Y59942D01*
X-3488Y61811D01*
X-5778Y63133D01*
X-8331Y63817D01*
D02*
G37*
%LPD*%
G36*
X277377Y433823D02*
X262445Y418892D01*
X257740Y421608D01*
X251240Y410350D01*
X243700Y397290D01*
X256760Y389750D01*
X260464Y396165D01*
X271335D01*
X301964Y365537D01*
X301798Y364277D01*
X301404Y364050D01*
X300305Y363415D01*
X297776Y361955D01*
X301546Y355425D01*
X305316Y348895D01*
X309646Y351395D01*
X310746Y352030D01*
X311845Y352665D01*
X316870Y355566D01*
X317969Y354931D01*
Y350173D01*
X312654Y347105D01*
X311554Y346470D01*
X310455Y345835D01*
X300296Y339970D01*
X306711Y328858D01*
Y314792D01*
X307007Y313305D01*
X307849Y312045D01*
X339315Y280579D01*
Y269140D01*
X331470D01*
Y261600D01*
Y254060D01*
X350740D01*
Y269140D01*
X347085D01*
Y282188D01*
X346789Y283674D01*
X345947Y284935D01*
X314480Y316401D01*
Y330746D01*
X319796Y333815D01*
X320896Y334450D01*
X321996Y335085D01*
X332154Y340950D01*
X325739Y352061D01*
Y356104D01*
X325933Y356395D01*
X326229Y357882D01*
Y372838D01*
X332296Y378904D01*
X375740Y335460D01*
X375873Y335261D01*
X375920Y335025D01*
Y178055D01*
X375873Y177819D01*
X375740Y177620D01*
X349670Y151550D01*
X348497Y152036D01*
Y233760D01*
X350740D01*
Y248840D01*
X322660D01*
Y233760D01*
X324319D01*
Y189209D01*
X323220Y188574D01*
X321816Y189385D01*
X318046Y182855D01*
X314276Y176325D01*
X316805Y174865D01*
X317904Y174230D01*
X319004Y173595D01*
X330964Y166690D01*
X338504Y179750D01*
X332089Y183454D01*
Y233760D01*
X340728D01*
Y142607D01*
X326981Y128861D01*
X321939Y133902D01*
Y151058D01*
X328354Y162170D01*
X318195Y168035D01*
X317096Y168670D01*
X315996Y169305D01*
X304036Y176210D01*
X296496Y163150D01*
X302911Y159446D01*
Y149655D01*
X258246Y104990D01*
X256987Y105156D01*
X254665Y109178D01*
X248135Y105408D01*
X241605Y101638D01*
X244740Y96208D01*
X248276Y90084D01*
X247641Y88985D01*
X242883D01*
X239179Y95400D01*
X232680Y106658D01*
X221568Y100243D01*
X209959D01*
X208472Y99947D01*
X207212Y99105D01*
X185422Y77315D01*
X176440D01*
Y81430D01*
X168900D01*
Y82700D01*
X167630D01*
Y90240D01*
X163975D01*
Y228331D01*
X230973Y295330D01*
X231017Y295304D01*
X233608Y294610D01*
X236292D01*
X238883Y295304D01*
X241207Y296646D01*
X243104Y298543D01*
X244446Y300867D01*
X245140Y303458D01*
Y306142D01*
X244446Y308733D01*
X243104Y311057D01*
X241207Y312954D01*
X238883Y314296D01*
X236292Y314990D01*
X233608D01*
X231017Y314296D01*
X228693Y312954D01*
X226796Y311057D01*
X225454Y308733D01*
X224760Y306142D01*
Y303458D01*
X225454Y300867D01*
X225480Y300823D01*
X157343Y232687D01*
X156501Y231427D01*
X156205Y229940D01*
Y91483D01*
X156140Y90240D01*
X141060D01*
Y88431D01*
X93959D01*
X93324Y89530D01*
X94135Y90934D01*
X87605Y94704D01*
X81075Y98474D01*
X78980Y94846D01*
X71440Y81786D01*
X84500Y74246D01*
X88204Y80661D01*
X141060D01*
Y75160D01*
Y66501D01*
X75739D01*
X52783Y89458D01*
X52727Y89541D01*
X53375Y90811D01*
X55808D01*
X66920Y84396D01*
X73420Y95654D01*
X80960Y108714D01*
X67900Y116254D01*
X64196Y109839D01*
X54511D01*
X15536Y148813D01*
X15702Y150073D01*
X19724Y152395D01*
X15954Y158925D01*
X12184Y165455D01*
X6754Y162320D01*
X-4504Y155820D01*
X3036Y142760D01*
X7833Y145529D01*
X50155Y103207D01*
X51415Y102365D01*
X52902Y102070D01*
X58441D01*
X59076Y100970D01*
X57696Y98581D01*
X48943D01*
X47457Y98285D01*
X46196Y97443D01*
X45497Y96743D01*
X-13630Y155870D01*
X-8601Y160900D01*
X-7341Y160734D01*
X-7114Y160340D01*
X5946Y167880D01*
X17204Y174380D01*
X10789Y185492D01*
Y198873D01*
X10493Y200360D01*
X9651Y201620D01*
X-18085Y229356D01*
Y240110D01*
X-13970D01*
Y247650D01*
X-12700D01*
Y248920D01*
X-5160D01*
Y255190D01*
X-12828D01*
X-12841Y255255D01*
X-13683Y256515D01*
X-16308Y259140D01*
X-16287Y259425D01*
X-15890Y260410D01*
X-5160D01*
Y275490D01*
X-8815D01*
Y327405D01*
X-6391Y329829D01*
X-3396Y328100D01*
X2034Y324965D01*
X5804Y331495D01*
X9574Y338025D01*
X5946Y340120D01*
X-7114Y347660D01*
X-14654Y334600D01*
X-14260Y334373D01*
X-14094Y333113D01*
X-15447Y331761D01*
X-16289Y330501D01*
X-16585Y329014D01*
Y275490D01*
X-21815D01*
Y352819D01*
X-17839Y356795D01*
X-12641D01*
X-8039Y352193D01*
X-6778Y351351D01*
X-5292Y351055D01*
X-2556D01*
X6754Y345680D01*
X19814Y338140D01*
X27354Y351200D01*
X20939Y354904D01*
Y370834D01*
X47873Y397768D01*
X49132Y397603D01*
X51455Y393580D01*
X57985Y397350D01*
X64514Y401120D01*
X61379Y406550D01*
X54879Y417808D01*
X41820Y410268D01*
X44589Y405472D01*
X14307Y375190D01*
X13465Y373929D01*
X13169Y372443D01*
Y360659D01*
X12070Y360024D01*
X3036Y365240D01*
X2809Y364846D01*
X1549Y364680D01*
X-3369Y369599D01*
X-3356Y370869D01*
X15603Y389070D01*
X54294Y426213D01*
X55523Y426341D01*
X59960Y421905D01*
X59794Y420646D01*
X59400Y420418D01*
X66940Y407359D01*
X73440Y396100D01*
X86500Y403640D01*
X84950Y406325D01*
X85683Y407595D01*
X104310D01*
X105797Y407891D01*
X107057Y408733D01*
X129009Y430685D01*
X141060D01*
Y426570D01*
X156140D01*
Y430760D01*
Y445840D01*
X156140Y445840D01*
X156273Y446787D01*
X156297Y446856D01*
X156321Y447026D01*
X156493D01*
X156564Y447040D01*
X160936D01*
X161007Y447026D01*
X161179D01*
X161203Y446856D01*
X161227Y446787D01*
X161360Y445840D01*
X161360Y445840D01*
Y430760D01*
Y417760D01*
X176440D01*
Y430760D01*
Y440346D01*
X183134Y447040D01*
X264160D01*
X277377Y433823D01*
D02*
G37*
G36*
X76158Y447082D02*
X76200Y447040D01*
X140636D01*
X140707Y447026D01*
X140879D01*
X140903Y446856D01*
X140927Y446787D01*
X141060Y445840D01*
X141060Y445840D01*
Y438455D01*
X127400D01*
X125913Y438159D01*
X124653Y437317D01*
X102701Y415365D01*
X83064D01*
X81578Y415069D01*
X81140Y414777D01*
X79904Y415065D01*
X78960Y416700D01*
X72460Y427958D01*
X67663Y425189D01*
X61234Y431618D01*
X61234Y431644D01*
X61509Y433139D01*
X75912Y446967D01*
X76101Y447088D01*
X76113Y447099D01*
X76158Y447082D01*
D02*
G37*
G36*
X326802Y384398D02*
X319597Y377194D01*
X318755Y375933D01*
X318460Y374447D01*
Y367123D01*
X317233Y366794D01*
X314464Y371590D01*
X309667Y368821D01*
X275691Y402797D01*
X274431Y403639D01*
X272944Y403935D01*
X266219D01*
X265584Y405034D01*
X270800Y414068D01*
X270314Y414348D01*
X270149Y415608D01*
X282870Y428330D01*
X326802Y384398D01*
D02*
G37*
G36*
X-30516Y344358D02*
X-29702Y343734D01*
X-29637Y343629D01*
X-29585Y343471D01*
Y275490D01*
X-33240D01*
Y260410D01*
X-34483Y260345D01*
X-45720D01*
Y329969D01*
X-45677Y330164D01*
X-45677Y330182D01*
X-45664Y330194D01*
X-45553Y330360D01*
X-30937Y344392D01*
X-30855Y344444D01*
X-30516Y344358D01*
D02*
G37*
G36*
X-33240Y240110D02*
X-25855D01*
Y227747D01*
X-25559Y226261D01*
X-24717Y225000D01*
X3020Y197264D01*
Y183604D01*
X-3396Y179900D01*
D01*
X-14654Y173400D01*
X-11885Y168603D01*
X-19124Y161364D01*
X-45540Y187780D01*
X-45673Y187979D01*
X-45720Y188215D01*
Y252575D01*
X-33240D01*
Y240110D01*
D02*
G37*
G36*
X314170Y152946D02*
Y132293D01*
X314465Y130807D01*
X315307Y129546D01*
X321487Y123367D01*
X269408Y71288D01*
X254834Y85862D01*
X255000Y87121D01*
X264300Y92490D01*
X261530Y97287D01*
X309543Y145299D01*
X310385Y146559D01*
X310681Y148046D01*
Y153691D01*
X311780Y154326D01*
X314170Y152946D01*
D02*
G37*
G36*
X49558Y89105D02*
X49826Y89023D01*
X50263Y88742D01*
X50375Y88543D01*
X50390Y88467D01*
X50476Y88338D01*
X50573Y88103D01*
X50629Y88019D01*
X50717Y87931D01*
X50756Y87860D01*
X50838Y87796D01*
X50951Y87626D01*
X70904Y67674D01*
X70417Y66501D01*
X27901D01*
X27415Y67674D01*
X48917Y89175D01*
X49558Y89105D01*
D02*
G37*
G36*
X227160Y86059D02*
D01*
X233660Y74800D01*
X244771Y81215D01*
X248493D01*
X263914Y65794D01*
X259260Y61140D01*
X259061Y61007D01*
X258825Y60960D01*
X176864D01*
X176793Y60974D01*
X176621D01*
X176597Y61144D01*
X176573Y61213D01*
X176440Y62160D01*
X176440Y62160D01*
Y69545D01*
X187031D01*
X188517Y69841D01*
X189777Y70683D01*
X211568Y92474D01*
X223456D01*
X227160Y86059D01*
D02*
G37*
%LPC*%
G36*
X156140Y424030D02*
X149870D01*
Y417760D01*
X156140D01*
Y424030D01*
D02*
G37*
G36*
X147330D02*
X141060D01*
Y417760D01*
X147330D01*
Y424030D01*
D02*
G37*
G36*
X240160Y431758D02*
X236456Y425343D01*
X224608D01*
X223122Y425047D01*
X221861Y424205D01*
X86527Y288870D01*
X86483Y288896D01*
X83892Y289590D01*
X81208D01*
X78617Y288896D01*
X76293Y287554D01*
X74396Y285657D01*
X73054Y283333D01*
X72360Y280742D01*
Y278058D01*
X73054Y275467D01*
X74396Y273143D01*
X76293Y271246D01*
X78617Y269904D01*
X81208Y269210D01*
X83892D01*
X86483Y269904D01*
X88807Y271246D01*
X90704Y273143D01*
X92046Y275467D01*
X92740Y278058D01*
Y280742D01*
X92046Y283333D01*
X92020Y283377D01*
X226217Y417574D01*
X230700D01*
X231336Y416474D01*
X230525Y415070D01*
X237055Y411300D01*
X243584Y407530D01*
X245679Y411158D01*
X253220Y424218D01*
X240160Y431758D01*
D02*
G37*
G36*
X229255Y412870D02*
X226120Y407440D01*
X231550Y404305D01*
X234685Y409735D01*
X229255Y412870D01*
D02*
G37*
G36*
X236884Y408465D02*
X233750Y403035D01*
X239179Y399900D01*
X242314Y405330D01*
X236884Y408465D01*
D02*
G37*
G36*
X65785Y398920D02*
X60354Y395785D01*
X63489Y390355D01*
X68920Y393490D01*
X65785Y398920D01*
D02*
G37*
G36*
X58155Y394515D02*
X52725Y391380D01*
X55860Y385950D01*
X61290Y389085D01*
X58155Y394515D01*
D02*
G37*
G36*
X295576Y360685D02*
X290146Y357550D01*
X293281Y352120D01*
X298711Y355255D01*
X295576Y360685D01*
D02*
G37*
G36*
X299981Y353055D02*
X294551Y349920D01*
X297686Y344490D01*
X303116Y347625D01*
X299981Y353055D01*
D02*
G37*
G36*
X236292Y340390D02*
X236220D01*
Y331470D01*
X245140D01*
Y331542D01*
X244446Y334133D01*
X243104Y336457D01*
X241207Y338354D01*
X238883Y339696D01*
X236292Y340390D01*
D02*
G37*
G36*
X233680D02*
X233608D01*
X231017Y339696D01*
X228693Y338354D01*
X226796Y336457D01*
X225454Y334133D01*
X224760Y331542D01*
Y331470D01*
X233680D01*
Y340390D01*
D02*
G37*
G36*
X11774Y336755D02*
X8639Y331325D01*
X14069Y328190D01*
X17204Y333620D01*
X11774Y336755D01*
D02*
G37*
G36*
X7369Y329125D02*
X4234Y323695D01*
X9664Y320560D01*
X12799Y325990D01*
X7369Y329125D01*
D02*
G37*
G36*
X245140Y328930D02*
X236220D01*
Y320010D01*
X236292D01*
X238883Y320704D01*
X241207Y322046D01*
X243104Y323943D01*
X244446Y326267D01*
X245140Y328858D01*
Y328930D01*
D02*
G37*
G36*
X233680D02*
X224760D01*
Y328858D01*
X225454Y326267D01*
X226796Y323943D01*
X228693Y322046D01*
X231017Y320704D01*
X233608Y320010D01*
X233680D01*
Y328930D01*
D02*
G37*
G36*
X92740Y340390D02*
X72360D01*
Y320010D01*
X92740D01*
Y340390D01*
D02*
G37*
G36*
X83892Y314990D02*
X81208D01*
X78617Y314296D01*
X76293Y312954D01*
X74396Y311057D01*
X73054Y308733D01*
X72360Y306142D01*
Y303458D01*
X73054Y300867D01*
X74396Y298543D01*
X76293Y296646D01*
X78617Y295304D01*
X81208Y294610D01*
X83892D01*
X86483Y295304D01*
X88807Y296646D01*
X90704Y298543D01*
X92046Y300867D01*
X92740Y303458D01*
Y306142D01*
X92046Y308733D01*
X90704Y311057D01*
X88807Y312954D01*
X86483Y314296D01*
X83892Y314990D01*
D02*
G37*
G36*
X309572Y302890D02*
X306928D01*
X304375Y302206D01*
X302085Y300884D01*
X300216Y299015D01*
X298894Y296725D01*
X298210Y294172D01*
Y291528D01*
X298894Y288975D01*
X300216Y286685D01*
X302085Y284816D01*
X304375Y283494D01*
X306928Y282810D01*
X309572D01*
X312125Y283494D01*
X314415Y284816D01*
X316284Y286685D01*
X317606Y288975D01*
X318290Y291528D01*
Y294172D01*
X317606Y296725D01*
X316284Y299015D01*
X314415Y300884D01*
X312125Y302206D01*
X309572Y302890D01*
D02*
G37*
G36*
X264572D02*
X261928D01*
X259375Y302206D01*
X257085Y300884D01*
X255216Y299015D01*
X253894Y296725D01*
X253210Y294172D01*
Y291528D01*
X253894Y288975D01*
X255216Y286685D01*
X257085Y284816D01*
X259375Y283494D01*
X261928Y282810D01*
X264572D01*
X267125Y283494D01*
X269415Y284816D01*
X271284Y286685D01*
X272606Y288975D01*
X273290Y291528D01*
Y294172D01*
X272606Y296725D01*
X271284Y299015D01*
X269415Y300884D01*
X267125Y302206D01*
X264572Y302890D01*
D02*
G37*
G36*
X46890Y364490D02*
X44550D01*
X42289Y363884D01*
X40261Y362714D01*
X38606Y361059D01*
X37436Y359031D01*
X36830Y356770D01*
Y354430D01*
X37436Y352169D01*
X38606Y350141D01*
X40261Y348486D01*
X41835Y347578D01*
Y265430D01*
X42131Y263943D01*
X42973Y262683D01*
X73080Y232577D01*
X73054Y232533D01*
X72360Y229942D01*
Y227258D01*
X73054Y224667D01*
X74396Y222343D01*
X76293Y220446D01*
X78617Y219104D01*
X81208Y218410D01*
X83892D01*
X86483Y219104D01*
X88807Y220446D01*
X88952Y220591D01*
X90125Y220105D01*
Y211695D01*
X88952Y211209D01*
X88807Y211354D01*
X86483Y212696D01*
X83892Y213390D01*
X81208D01*
X78617Y212696D01*
X76293Y211354D01*
X74396Y209457D01*
X73054Y207133D01*
X72360Y204542D01*
Y201858D01*
X73054Y199267D01*
X74396Y196943D01*
X76293Y195046D01*
X78617Y193704D01*
X81208Y193010D01*
X83892D01*
X86483Y193704D01*
X88807Y195046D01*
X88952Y195191D01*
X90125Y194705D01*
Y186295D01*
X88952Y185809D01*
X88807Y185954D01*
X86483Y187296D01*
X83892Y187990D01*
X81208D01*
X78617Y187296D01*
X76293Y185954D01*
X74396Y184057D01*
X73054Y181733D01*
X72360Y179142D01*
Y176458D01*
X73054Y173867D01*
X74396Y171543D01*
X76293Y169646D01*
X78617Y168304D01*
X81208Y167610D01*
X81414D01*
X81900Y166437D01*
X76828Y161365D01*
X48663D01*
X47754Y162939D01*
X46099Y164594D01*
X44071Y165764D01*
X41810Y166370D01*
X39470D01*
X37209Y165764D01*
X35181Y164594D01*
X33526Y162939D01*
X32356Y160911D01*
X31750Y158650D01*
Y156310D01*
X32356Y154049D01*
X33526Y152021D01*
X35181Y150366D01*
X37209Y149196D01*
X39470Y148590D01*
X41810D01*
X44071Y149196D01*
X46099Y150366D01*
X47754Y152021D01*
X48663Y153595D01*
X78437D01*
X79924Y153891D01*
X81184Y154733D01*
X96757Y170306D01*
X97599Y171567D01*
X97895Y173053D01*
Y233347D01*
X97599Y234834D01*
X96757Y236094D01*
X88701Y244149D01*
Y245785D01*
X88807Y245846D01*
X90704Y247743D01*
X92046Y250067D01*
X92740Y252658D01*
Y255342D01*
X92046Y257933D01*
X90704Y260257D01*
X88807Y262154D01*
X86483Y263496D01*
X83892Y264190D01*
X81208D01*
X78617Y263496D01*
X76293Y262154D01*
X74396Y260257D01*
X73054Y257933D01*
X72360Y255342D01*
Y252658D01*
X73054Y250067D01*
X74396Y247743D01*
X76293Y245846D01*
X78617Y244504D01*
X80932Y243884D01*
Y242540D01*
X81228Y241053D01*
X81892Y240060D01*
X81459Y238790D01*
X81208D01*
X78617Y238096D01*
X78573Y238070D01*
X49605Y267039D01*
Y277851D01*
X50875Y278377D01*
X51535Y277716D01*
X53825Y276394D01*
X56378Y275710D01*
X59022D01*
X61575Y276394D01*
X63865Y277716D01*
X65734Y279585D01*
X67056Y281875D01*
X67740Y284428D01*
Y287072D01*
X67056Y289625D01*
X65734Y291915D01*
X63865Y293784D01*
X61575Y295106D01*
X59022Y295790D01*
X56378D01*
X53825Y295106D01*
X51535Y293784D01*
X50875Y293123D01*
X49605Y293649D01*
Y347578D01*
X51179Y348486D01*
X52834Y350141D01*
X54004Y352169D01*
X54610Y354430D01*
Y356770D01*
X54004Y359031D01*
X52834Y361059D01*
X51179Y362714D01*
X49151Y363884D01*
X46890Y364490D01*
D02*
G37*
G36*
X14022Y295790D02*
X11378D01*
X8825Y295106D01*
X6535Y293784D01*
X4666Y291915D01*
X3344Y289625D01*
X2660Y287072D01*
Y284428D01*
X3344Y281875D01*
X4666Y279585D01*
X6535Y277716D01*
X8825Y276394D01*
X11378Y275710D01*
X14022D01*
X16575Y276394D01*
X18865Y277716D01*
X20734Y279585D01*
X22056Y281875D01*
X22740Y284428D01*
Y287072D01*
X22056Y289625D01*
X20734Y291915D01*
X18865Y293784D01*
X16575Y295106D01*
X14022Y295790D01*
D02*
G37*
G36*
X236292Y289590D02*
X233608D01*
X231017Y288896D01*
X228693Y287554D01*
X226796Y285657D01*
X225454Y283333D01*
X224760Y280742D01*
Y278058D01*
X225454Y275467D01*
X226796Y273143D01*
X228693Y271246D01*
X231017Y269904D01*
X233608Y269210D01*
X236292D01*
X238883Y269904D01*
X241207Y271246D01*
X243104Y273143D01*
X244446Y275467D01*
X245140Y278058D01*
Y280742D01*
X244446Y283333D01*
X243104Y285657D01*
X241207Y287554D01*
X238883Y288896D01*
X236292Y289590D01*
D02*
G37*
G36*
X328930Y269140D02*
X322660D01*
Y262870D01*
X328930D01*
Y269140D01*
D02*
G37*
G36*
Y260330D02*
X322660D01*
Y254060D01*
X328930D01*
Y260330D01*
D02*
G37*
G36*
X236292Y264190D02*
X233608D01*
X231017Y263496D01*
X228693Y262154D01*
X226796Y260257D01*
X225454Y257933D01*
X224760Y255342D01*
Y252658D01*
X225454Y250067D01*
X226796Y247743D01*
X228693Y245846D01*
X231017Y244504D01*
X233608Y243810D01*
X236292D01*
X238883Y244504D01*
X241207Y245846D01*
X243104Y247743D01*
X244446Y250067D01*
X245140Y252658D01*
Y255342D01*
X244446Y257933D01*
X243104Y260257D01*
X241207Y262154D01*
X238883Y263496D01*
X236292Y264190D01*
D02*
G37*
G36*
X-5160Y246380D02*
X-11430D01*
Y240110D01*
X-5160D01*
Y246380D01*
D02*
G37*
G36*
X236292Y238790D02*
X233608D01*
X231017Y238096D01*
X228693Y236754D01*
X226796Y234857D01*
X225454Y232533D01*
X224760Y229942D01*
Y227258D01*
X225454Y224667D01*
X226796Y222343D01*
X228693Y220446D01*
X231017Y219104D01*
X233608Y218410D01*
X236292D01*
X238883Y219104D01*
X241207Y220446D01*
X243104Y222343D01*
X244446Y224667D01*
X245140Y227258D01*
Y229942D01*
X244446Y232533D01*
X243104Y234857D01*
X241207Y236754D01*
X238883Y238096D01*
X236292Y238790D01*
D02*
G37*
G36*
X309572Y237890D02*
X306928D01*
X304375Y237206D01*
X302085Y235884D01*
X300216Y234015D01*
X298894Y231725D01*
X298210Y229172D01*
Y226528D01*
X298894Y223975D01*
X300216Y221685D01*
X302085Y219816D01*
X304375Y218494D01*
X306928Y217810D01*
X309572D01*
X312125Y218494D01*
X314415Y219816D01*
X316284Y221685D01*
X317606Y223975D01*
X318290Y226528D01*
Y229172D01*
X317606Y231725D01*
X316284Y234015D01*
X314415Y235884D01*
X312125Y237206D01*
X309572Y237890D01*
D02*
G37*
G36*
X264572D02*
X261928D01*
X259375Y237206D01*
X257085Y235884D01*
X255216Y234015D01*
X253894Y231725D01*
X253210Y229172D01*
Y226528D01*
X253894Y223975D01*
X255216Y221685D01*
X257085Y219816D01*
X259375Y218494D01*
X261928Y217810D01*
X264572D01*
X267125Y218494D01*
X269415Y219816D01*
X271284Y221685D01*
X272606Y223975D01*
X273290Y226528D01*
Y229172D01*
X272606Y231725D01*
X271284Y234015D01*
X269415Y235884D01*
X267125Y237206D01*
X264572Y237890D01*
D02*
G37*
G36*
X14022Y230790D02*
X11378D01*
X8825Y230106D01*
X6535Y228784D01*
X4666Y226915D01*
X3344Y224625D01*
X2660Y222072D01*
Y219428D01*
X3344Y216875D01*
X4666Y214585D01*
X6535Y212716D01*
X8825Y211394D01*
X11378Y210710D01*
X14022D01*
X16575Y211394D01*
X18865Y212716D01*
X20734Y214585D01*
X22056Y216875D01*
X22740Y219428D01*
Y222072D01*
X22056Y224625D01*
X20734Y226915D01*
X18865Y228784D01*
X16575Y230106D01*
X14022Y230790D01*
D02*
G37*
G36*
X236292Y213390D02*
X233608D01*
X231017Y212696D01*
X228693Y211354D01*
X226796Y209457D01*
X225454Y207133D01*
X224760Y204542D01*
Y201858D01*
X225454Y199267D01*
X226796Y196943D01*
X228693Y195046D01*
X231017Y193704D01*
X233608Y193010D01*
X236292D01*
X238883Y193704D01*
X241207Y195046D01*
X243104Y196943D01*
X244446Y199267D01*
X245140Y201858D01*
Y204542D01*
X244446Y207133D01*
X243104Y209457D01*
X241207Y211354D01*
X238883Y212696D01*
X236292Y213390D01*
D02*
G37*
G36*
X314186Y193790D02*
X311051Y188360D01*
X316481Y185225D01*
X319616Y190655D01*
X314186Y193790D01*
D02*
G37*
G36*
X59022Y230790D02*
X56378D01*
X53825Y230106D01*
X51535Y228784D01*
X49666Y226915D01*
X48344Y224625D01*
X47660Y222072D01*
Y219428D01*
X48344Y216875D01*
X49666Y214585D01*
X51535Y212716D01*
X53815Y211400D01*
Y204089D01*
X30866Y181140D01*
X29110Y181610D01*
X26770D01*
X24509Y181004D01*
X22481Y179834D01*
X20826Y178179D01*
X19656Y176151D01*
X19050Y173890D01*
Y171550D01*
X19545Y169704D01*
X14384Y166725D01*
X18154Y160195D01*
X21924Y153665D01*
X27354Y156800D01*
X23434Y163590D01*
X24364Y164520D01*
X24509Y164436D01*
X26770Y163830D01*
X29110D01*
X31371Y164436D01*
X33399Y165606D01*
X35054Y167261D01*
X36224Y169289D01*
X36830Y171550D01*
Y173890D01*
X36360Y175646D01*
X60447Y199733D01*
X61289Y200993D01*
X61585Y202480D01*
Y211400D01*
X63865Y212716D01*
X65734Y214585D01*
X67056Y216875D01*
X67740Y219428D01*
Y222072D01*
X67056Y224625D01*
X65734Y226915D01*
X63865Y228784D01*
X61575Y230106D01*
X59022Y230790D01*
D02*
G37*
G36*
X309781Y186160D02*
X306646Y180730D01*
X312076Y177595D01*
X315211Y183025D01*
X309781Y186160D01*
D02*
G37*
G36*
X236292Y187990D02*
X233608D01*
X231017Y187296D01*
X228693Y185954D01*
X226796Y184057D01*
X225454Y181733D01*
X224760Y179142D01*
Y176458D01*
X225454Y173867D01*
X226796Y171543D01*
X228693Y169646D01*
X231017Y168304D01*
X233608Y167610D01*
X236292D01*
X238883Y168304D01*
X241207Y169646D01*
X243104Y171543D01*
X244446Y173867D01*
X245140Y176458D01*
Y179142D01*
X244446Y181733D01*
X243104Y184057D01*
X241207Y185954D01*
X238883Y187296D01*
X236292Y187990D01*
D02*
G37*
G36*
X250260Y116808D02*
X244830Y113673D01*
X247965Y108243D01*
X253395Y111378D01*
X250260Y116808D01*
D02*
G37*
G36*
X242630Y112403D02*
X237200Y109268D01*
X240335Y103838D01*
X245765Y106973D01*
X242630Y112403D01*
D02*
G37*
G36*
X85480Y106104D02*
X82345Y100674D01*
X87775Y97539D01*
X90910Y102969D01*
X85480Y106104D01*
D02*
G37*
G36*
X93110Y101699D02*
X89975Y96269D01*
X95405Y93134D01*
X98540Y98564D01*
X93110Y101699D01*
D02*
G37*
G36*
X176440Y90240D02*
X170170D01*
Y83970D01*
X176440D01*
Y90240D01*
D02*
G37*
%LPD*%
D11*
X298669Y62616D02*
X301906D01*
X292290Y56238D02*
X298669Y62616D01*
X278964Y56238D02*
X292290D01*
X344612Y105735D02*
Y239888D01*
X143904Y62616D02*
X160090Y78802D01*
X57700Y202480D02*
Y220750D01*
X27940Y172720D02*
X57700Y202480D01*
X160090Y78802D02*
Y229940D01*
X16864Y62616D02*
X143904D01*
X160090Y229940D02*
X234950Y304800D01*
X94010Y173053D02*
Y233347D01*
X78437Y157480D02*
X94010Y173053D01*
X82550Y254000D02*
X84817Y251733D01*
Y242540D02*
X94010Y233347D01*
X84817Y242540D02*
Y251733D01*
X40640Y157480D02*
X78437D01*
X45720Y265430D02*
X82550Y228600D01*
X45720Y265430D02*
Y355600D01*
X-76200Y223520D02*
Y248920D01*
X-68660Y256460D01*
X-19122D01*
X-16430Y253768D01*
Y251380D02*
Y253768D01*
Y251380D02*
X-12700Y247650D01*
X310596Y314792D02*
X343200Y282188D01*
X310596Y314792D02*
Y337210D01*
X224608Y421458D02*
X242920D01*
X82550Y279400D02*
X224608Y421458D01*
X17054Y348440D02*
Y372443D01*
X52120Y407508D01*
X-25700Y267950D02*
Y354428D01*
X-19448Y360680D02*
X-11032D01*
X-5292Y354940D01*
X5796D01*
X-25700Y354428D02*
X-19448Y360680D01*
X104310Y411480D02*
X127400Y434570D01*
X76200Y406400D02*
X77984D01*
X83064Y411480D01*
X104310D01*
X-32634Y112114D02*
Y142360D01*
X-4354Y170640D01*
X16864Y62616D02*
X48943Y94696D01*
X64160D01*
X236420Y85100D02*
X250102D01*
X278964Y56238D01*
X318054Y132293D02*
Y159410D01*
Y132293D02*
X344612Y105735D01*
X343200Y241300D02*
X344612Y239888D01*
X322344Y374447D02*
X350134Y402236D01*
X322344Y357882D02*
Y374447D01*
X321854Y357392D02*
X322344Y357882D01*
X321854Y343710D02*
Y357392D01*
X260500Y411453D02*
X300636Y451589D01*
Y451734D01*
X260500Y411308D02*
Y411453D01*
X182334Y451734D02*
X300636D01*
X168900Y438300D02*
X182334Y451734D01*
X23214Y451734D02*
X35624D01*
X69700Y417658D01*
X-26284Y387020D02*
Y402236D01*
Y387020D02*
X5796Y354940D01*
X127400Y434570D02*
X144870D01*
X148600Y438300D01*
X-12700Y329014D02*
X-4354Y337360D01*
X-12700Y267950D02*
Y329014D01*
X-21970Y227747D02*
X6904Y198873D01*
X-21970Y227747D02*
Y243920D01*
X-25700Y247650D02*
X-21970Y243920D01*
X6904Y177140D02*
Y198873D01*
X52902Y105954D02*
X70660D01*
X5796Y153060D02*
X52902Y105954D01*
X81740Y84546D02*
X146754D01*
X148600Y82700D01*
X254000Y95250D02*
X306796Y148046D01*
Y165910D01*
X187031Y73430D02*
X209959Y96358D01*
X172630Y73430D02*
X187031D01*
X168900Y69700D02*
X172630Y73430D01*
X209959Y96358D02*
X229920D01*
X328204Y239304D02*
X330200Y241300D01*
X328204Y176990D02*
Y239304D01*
X343200Y261600D02*
Y282188D01*
X254000Y400050D02*
X272944D01*
X311704Y361290D01*
D16*
D03*
X300446Y354790D02*
D03*
X310596Y337210D02*
D03*
X321854Y343710D02*
D03*
X-4354Y170640D02*
D03*
X6904Y177140D02*
D03*
X17054Y159560D02*
D03*
X5796Y153060D02*
D03*
D17*
X-4354Y337360D02*
D03*
X6904Y330860D02*
D03*
X17054Y348440D02*
D03*
X5796Y354940D02*
D03*
X318054Y159410D02*
D03*
X306796Y165910D02*
D03*
X316946Y183490D02*
D03*
X328204Y176990D02*
D03*
D18*
X148600Y438300D02*
D03*
Y425300D02*
D03*
X168900D02*
D03*
Y438300D02*
D03*
X148600Y69700D02*
D03*
Y82700D02*
D03*
X168900D02*
D03*
Y69700D02*
D03*
D19*
X242920Y421458D02*
D03*
X236420Y410200D02*
D03*
X254000Y400050D02*
D03*
X260500Y411308D02*
D03*
X64160Y94696D02*
D03*
X70660Y105954D02*
D03*
X88240Y95804D02*
D03*
X81740Y84546D02*
D03*
D20*
X236420Y85100D02*
D03*
X229920Y96358D02*
D03*
X247500Y106508D02*
D03*
X254000Y95250D02*
D03*
X69700Y417658D02*
D03*
X76200Y406400D02*
D03*
X58620Y396250D02*
D03*
X52120Y407508D02*
D03*
D21*
X343200Y241300D02*
D03*
X330200D02*
D03*
Y261600D02*
D03*
X343200D02*
D03*
X-25700Y267950D02*
D03*
X-12700D02*
D03*
Y247650D02*
D03*
X-25700D02*
D03*
D33*
X386080Y381000D02*
D03*
X381000Y137160D02*
D03*
X-66040D02*
D03*
Y381000D02*
D03*
D34*
X263250Y227850D02*
D03*
X308250D02*
D03*
X263250Y292850D02*
D03*
X308250D02*
D03*
X57700Y285750D02*
D03*
X12700D02*
D03*
X57700Y220750D02*
D03*
X12700D02*
D03*
X23214Y451734D02*
D03*
X-26284Y402236D02*
D03*
X-3303Y460573D02*
D03*
X-35123Y428753D02*
D03*
X-32634Y112114D02*
D03*
X16864Y62616D02*
D03*
X-41473Y85597D02*
D03*
X-9653Y53777D02*
D03*
X301906Y62616D02*
D03*
X351404Y112114D02*
D03*
X328423Y53777D02*
D03*
X360243Y85597D02*
D03*
X350134Y402236D02*
D03*
X300636Y451734D02*
D03*
X358973Y428753D02*
D03*
X327153Y460573D02*
D03*
D35*
X82550Y330200D02*
D03*
D36*
Y304800D02*
D03*
Y279400D02*
D03*
Y254000D02*
D03*
Y228600D02*
D03*
Y203200D02*
D03*
Y177800D02*
D03*
X234950D02*
D03*
Y203200D02*
D03*
Y228600D02*
D03*
Y254000D02*
D03*
Y279400D02*
D03*
Y304800D02*
D03*
Y330200D02*
D03*
D37*
X27940Y172720D02*
D03*
X-76200Y223520D02*
D03*
Y274320D02*
D03*
Y320040D02*
D03*
X40640Y157480D02*
D03*
X45720Y355600D02*
D03*
M02*
