G04*
G04 #@! TF.GenerationSoftware,Altium Limited,Altium Designer,23.9.2 (47)*
G04*
G04 Layer_Color=16711935*
%FSLAX44Y44*%
%MOMM*%
G71*
G04*
G04 #@! TF.SameCoordinates,59006CB8-04EA-46C6-BC13-78CBB85C9A35*
G04*
G04*
G04 #@! TF.FilePolarity,Negative*
G04*
G01*
G75*
%ADD28C,5.7032*%
%ADD29C,1.7032*%
%ADD30R,1.7332X1.7332*%
%ADD31C,1.7332*%
%ADD32C,1.4732*%
%ADD41R,4.2032X4.2032*%
%ADD42R,5.4032X5.4032*%
%ADD43R,0.8382X1.4732*%
G36*
X53250Y148600D02*
Y127100D01*
X6250D01*
Y76100D01*
X53250D01*
Y54600D01*
X58250D01*
Y38600D01*
X58250D01*
Y35914D01*
X59204Y30629D01*
X61082Y25596D01*
X63823Y20978D01*
X67341Y16920D01*
X71525Y13551D01*
X76239Y10978D01*
X81336Y9284D01*
X86653Y8522D01*
X92020Y8717D01*
X97268Y9862D01*
X102229Y11920D01*
X104487Y13374D01*
Y13374D01*
X104487Y13374D01*
X107172Y16049D01*
X112932Y20977D01*
X119159Y25299D01*
X125791Y28970D01*
X132759Y31953D01*
X139993Y34217D01*
X147419Y35739D01*
X154960Y36504D01*
X162540D01*
X170081Y35739D01*
X177507Y34217D01*
X184741Y31953D01*
X191709Y28970D01*
X198341Y25299D01*
X204568Y20977D01*
X210328Y16049D01*
X213013Y13374D01*
D01*
X213013Y13374D01*
X215271Y11920D01*
X220232Y9862D01*
X225480Y8717D01*
X230847Y8522D01*
X236164Y9284D01*
X241261Y10978D01*
X245976Y13551D01*
X250159Y16920D01*
X253677Y20978D01*
X256418Y25596D01*
X258296Y30629D01*
X259250Y35914D01*
Y38600D01*
D01*
X259250D01*
Y54600D01*
X264250D01*
X264250Y54600D01*
Y76100D01*
X311250D01*
Y127100D01*
X264250D01*
Y148600D01*
X264250Y148600D01*
X259250D01*
X196183Y201520D01*
X196250Y201600D01*
Y206600D01*
X121250D01*
X121250Y206600D01*
Y201600D01*
X121317Y201520D01*
X58250Y148600D01*
X53250D01*
D02*
G37*
G36*
X264250Y365750D02*
Y387250D01*
X311250D01*
Y438250D01*
X264250D01*
Y459750D01*
X259250D01*
Y475750D01*
X259250D01*
Y478436D01*
X258296Y483721D01*
X256418Y488754D01*
X253677Y493372D01*
X250159Y497430D01*
X245975Y500799D01*
X241261Y503372D01*
X236164Y505066D01*
X230847Y505828D01*
X225480Y505633D01*
X220232Y504488D01*
X215271Y502430D01*
X213013Y500976D01*
X213013D01*
X213013Y500976D01*
X210328Y498301D01*
X204568Y493372D01*
X198341Y489051D01*
X191709Y485380D01*
X184741Y482397D01*
X177507Y480133D01*
X170081Y478611D01*
X162540Y477846D01*
X154960D01*
X147419Y478611D01*
X139993Y480133D01*
X132759Y482397D01*
X125791Y485380D01*
X119159Y489051D01*
X112932Y493372D01*
X107172Y498301D01*
X104487Y500976D01*
X104487Y500976D01*
X104487Y500976D01*
X102229Y502430D01*
X97268Y504488D01*
X92020Y505633D01*
X86653Y505828D01*
X81336Y505066D01*
X76239Y503372D01*
X71524Y500799D01*
X67341Y497430D01*
X63823Y493372D01*
X61082Y488754D01*
X59204Y483721D01*
X58250Y478436D01*
Y475750D01*
D01*
X58250D01*
Y459750D01*
X53250D01*
X53250Y459750D01*
Y438250D01*
X6250D01*
Y387250D01*
X53250D01*
Y365750D01*
X53250Y365750D01*
X58250D01*
X121317Y312830D01*
X121250Y312750D01*
Y307750D01*
X196250D01*
X196250Y307750D01*
Y312750D01*
X196183Y312830D01*
X259250Y365750D01*
X264250D01*
D02*
G37*
D28*
X386080Y381000D02*
D03*
X381000Y137160D02*
D03*
X-66040D02*
D03*
Y381000D02*
D03*
D29*
X263250Y227850D02*
D03*
X308250D02*
D03*
X263250Y292850D02*
D03*
X308250D02*
D03*
X57700Y285750D02*
D03*
X12700D02*
D03*
X57700Y220750D02*
D03*
X12700D02*
D03*
X23214Y451734D02*
D03*
X-26284Y402236D02*
D03*
X-3303Y460573D02*
D03*
X-35123Y428753D02*
D03*
X-32634Y112114D02*
D03*
X16864Y62616D02*
D03*
X-41473Y85597D02*
D03*
X-9653Y53777D02*
D03*
X301906Y62616D02*
D03*
X351404Y112114D02*
D03*
X328423Y53777D02*
D03*
X360243Y85597D02*
D03*
X350134Y402236D02*
D03*
X300636Y451734D02*
D03*
X358973Y428753D02*
D03*
X327153Y460573D02*
D03*
D30*
X82550Y330200D02*
D03*
D31*
Y304800D02*
D03*
Y279400D02*
D03*
Y254000D02*
D03*
Y228600D02*
D03*
Y203200D02*
D03*
Y177800D02*
D03*
X234950D02*
D03*
Y203200D02*
D03*
Y228600D02*
D03*
Y254000D02*
D03*
Y279400D02*
D03*
Y304800D02*
D03*
Y330200D02*
D03*
D32*
X27940Y172720D02*
D03*
X-76200Y223520D02*
D03*
Y274320D02*
D03*
Y320040D02*
D03*
X40640Y157480D02*
D03*
X45720Y355600D02*
D03*
D41*
X158750Y101600D02*
D03*
X158750Y412750D02*
D03*
D42*
X29250Y101600D02*
D03*
X288250D02*
D03*
X29250Y412750D02*
D03*
X288250D02*
D03*
D43*
X292100Y342900D02*
D03*
X283972D02*
D03*
M02*
